<svg width="82" height="81" viewBox="0 0 82 81" xmlns="http://www.w3.org/2000/svg"><title>Group 7</title><g fill="none" fill-rule="evenodd"><path d="M80.45 36.992c-1.927-1.905-2.646-5.59-1.683-8.09 1.08-2.5-.122-5.473-2.767-6.541-2.527-1.07-4.688-4.164-4.688-6.9 0-2.737-2.283-4.995-5.05-4.995s-5.89-2.021-6.976-4.637c-1.08-2.5-3.97-3.805-6.614-2.737-2.527 1.069-6.252.358-8.179-1.663-1.926-1.905-5.172-1.905-7.093 0-1.926 1.905-5.651 2.616-8.178 1.663-2.528-1.069-5.534.12-6.615 2.737-1.08 2.5-4.209 4.637-6.976 4.637-2.767 0-5.05 2.258-5.05 4.995 0 2.736-2.043 5.826-4.688 6.9-2.527 1.068-3.847 3.926-2.767 6.542 1.08 2.5.362 6.184-1.681 8.089-1.927 1.905-1.927 5.116 0 7.016 1.926 1.905 2.644 5.59 1.681 8.09-1.08 2.5.122 5.473 2.767 6.541 2.528 1.07 4.688 4.164 4.688 6.9 0 2.737 2.283 4.995 5.05 4.995s5.891 2.021 6.976 4.637c1.08 2.5 3.97 3.805 6.615 2.737 2.527-1.069 6.252-.358 8.178 1.663 1.926 1.905 5.172 1.905 7.093 0 1.927-1.905 5.652-2.616 8.18-1.663 2.526 1.069 5.533-.12 6.613-2.737 1.08-2.5 4.21-4.637 6.976-4.637 2.767 0 5.05-2.258 5.05-4.995 0-2.736 2.044-5.826 4.688-6.9 2.528-1.068 3.848-3.926 2.767-6.542-1.08-2.5-.361-6.184 1.682-8.089 1.921-1.9 1.921-4.995 0-7.016z" fill="#E42A20" fill-rule="nonzero"/><path d="M13.884 38.072c-.304 0-.607-.01-.908-.028a6.417 6.417 0 0 1-.94-.132v-5.376c.256-.048.536-.084.84-.108.304-.024.587-.036.848-.036.352 0 .676.025.972.076.296.05.55.137.764.26.213.123.38.284.5.484s.18.447.18.74c0 .443-.213.792-.64 1.048.352.133.592.315.72.544.128.23.192.488.192.776 0 .581-.212 1.019-.636 1.312-.424.293-1.055.44-1.892.44zm-.632-2.488v1.432c.09.01.19.019.296.024.107.005.224.008.352.008.373 0 .675-.053.904-.16.23-.107.344-.304.344-.592 0-.256-.096-.439-.288-.548-.192-.11-.467-.164-.824-.164h-.784zm0-.952h.608c.384 0 .659-.05.824-.148.165-.099.248-.257.248-.476 0-.224-.085-.381-.256-.472-.17-.09-.421-.136-.752-.136-.107 0-.221.001-.344.004-.123.003-.232.01-.328.02v1.208zm8.352 1.552c0 .31-.06.581-.18.816a1.65 1.65 0 0 1-.512.592c-.221.16-.49.28-.808.36-.317.08-.67.12-1.06.12a7.319 7.319 0 0 1-1.632-.2v-5.416h1.248v1.84c.059-.005.113-.008.164-.008h.164c.87 0 1.523.155 1.96.464.437.31.656.787.656 1.432zm.696-3.728h1.248V38H22.3v-5.544zm-3.392 2.888h-.112c-.048 0-.093.003-.136.008v1.656c.059.005.125.008.2.008h.272c.165 0 .32-.013.464-.04.144-.027.27-.072.38-.136a.693.693 0 0 0 .256-.256.793.793 0 0 0 .092-.4c0-.325-.121-.547-.364-.664-.243-.117-.593-.176-1.052-.176zm8.448 2.768c-.901 0-1.588-.25-2.06-.752-.472-.501-.708-1.213-.708-2.136 0-.459.072-.868.216-1.228.144-.36.341-.664.592-.912.25-.248.55-.436.896-.564a3.232 3.232 0 0 1 1.128-.192c.235 0 .448.017.64.052.192.035.36.075.504.12a2.487 2.487 0 0 1 .568.252l-.36 1.008a2.844 2.844 0 0 0-1.368-.328c-.192 0-.38.032-.564.096a1.275 1.275 0 0 0-.488.308 1.534 1.534 0 0 0-.34.548 2.3 2.3 0 0 0-.128.816c0 .256.028.495.084.716.056.221.147.412.272.572.125.16.29.287.492.38.203.093.448.14.736.14a3.354 3.354 0 0 0 .872-.108c.112-.03.21-.063.296-.1.085-.037.163-.072.232-.104l.344 1c-.176.107-.424.203-.744.288-.32.085-.69.128-1.112.128zm3.504-2.888c0 .272.033.517.1.736.067.219.163.407.288.564.125.157.279.279.46.364.181.085.39.128.624.128.23 0 .436-.043.62-.128s.339-.207.464-.364.221-.345.288-.564c.067-.219.1-.464.1-.736a2.56 2.56 0 0 0-.1-.74 1.677 1.677 0 0 0-.288-.568 1.266 1.266 0 0 0-.464-.364 1.457 1.457 0 0 0-.62-.128c-.235 0-.443.044-.624.132-.181.088-.335.21-.46.368a1.677 1.677 0 0 0-.288.568 2.53 2.53 0 0 0-.1.732zm4.232 0c0 .475-.07.892-.212 1.252-.141.36-.335.661-.58.904a2.381 2.381 0 0 1-.876.548 3.182 3.182 0 0 1-1.092.184c-.379 0-.736-.061-1.072-.184a2.465 2.465 0 0 1-.88-.548 2.562 2.562 0 0 1-.592-.904 3.355 3.355 0 0 1-.216-1.252c0-.475.075-.892.224-1.252.15-.36.35-.663.604-.908.253-.245.547-.43.88-.552a3.022 3.022 0 0 1 1.052-.184c.379 0 .736.061 1.072.184.336.123.63.307.88.552.25.245.448.548.592.908.144.36.216.777.216 1.252zm1.968-1.136c0 .219.027.396.08.532.053.136.13.244.228.324.099.08.217.135.356.164.139.03.29.044.456.044a7.055 7.055 0 0 0 .864-.064v-2.632h1.248V38h-1.248v-1.856a9.701 9.701 0 0 1-.528.048c-.17.01-.333.016-.488.016-.336 0-.641-.03-.916-.092a1.654 1.654 0 0 1-.7-.328 1.515 1.515 0 0 1-.444-.632c-.104-.264-.156-.599-.156-1.004v-1.696h1.248v1.632zM45.284 38c-.059-.192-.124-.39-.196-.592a54.886 54.886 0 0 1-.212-.608h-2.16c-.07.203-.14.405-.212.608-.072.203-.137.4-.196.592h-1.296c.208-.597.405-1.15.592-1.656a58.02 58.02 0 0 1 1.076-2.708c.173-.403.353-.796.54-1.18h1.192a44.52 44.52 0 0 1 1.616 3.888c.187.507.384 1.059.592 1.656h-1.336zm-1.496-4.288c-.027.08-.067.19-.12.328a264.182 264.182 0 0 0-.412 1.08c-.083.219-.167.448-.252.688h1.576a80.38 80.38 0 0 0-.248-.688 23.7 23.7 0 0 0-.228-.6 48.423 48.423 0 0 1-.188-.48 27.914 27.914 0 0 0-.128-.328zM47.34 38v-5.544h1.24v3.272c.192-.288.397-.588.616-.9.219-.312.439-.613.66-.904.221-.29.439-.564.652-.82.213-.256.408-.472.584-.648h1.016V38h-1.232v-3.632c-.47.55-.912 1.133-1.328 1.752a27.898 27.898 0 0 0-1.16 1.88H47.34zm2.48-6.032c-.17 0-.335-.025-.492-.076-.157-.05-.3-.125-.428-.224a1.241 1.241 0 0 1-.316-.36 1.145 1.145 0 0 1-.148-.484l.824-.216c.043.203.113.347.212.432a.515.515 0 0 0 .348.128.56.56 0 0 0 .356-.116c.099-.077.17-.223.212-.436l.816.216a1.145 1.145 0 0 1-.148.484c-.083.141-.187.26-.312.356-.125.096-.268.17-.428.22-.16.05-.325.076-.496.076zM60.268 38h-6.88v-5.544h1.248v4.488h1.568v-4.488h1.248v4.488h1.568v-4.488h1.248V38zm1.28 0v-5.544h3.744v1.048h-2.496v1.088h2.216v1.024h-2.216v1.336h2.68V38h-3.928zm4.848 0v-5.544h3.744v1.048h-2.496v1.088h2.216v1.024h-2.216v1.336h2.68V38h-3.928zm-43.16 11a10.257 10.257 0 0 0-.892-1.22c-.179-.21-.364-.413-.556-.608a5.905 5.905 0 0 0-.576-.516V49h-1.248v-5.544h1.248v2.096c.325-.341.652-.697.98-1.068.328-.37.633-.713.916-1.028h1.48a40.063 40.063 0 0 1-2.344 2.552c.443.368.87.805 1.284 1.312.413.507.81 1.067 1.188 1.68h-1.48zm6.112 0c-.059-.192-.124-.39-.196-.592a54.886 54.886 0 0 1-.212-.608h-2.16c-.07.203-.14.405-.212.608-.072.203-.137.4-.196.592h-1.296c.208-.597.405-1.15.592-1.656a58.02 58.02 0 0 1 1.076-2.708c.173-.403.353-.796.54-1.18h1.192a44.52 44.52 0 0 1 1.616 3.888c.187.507.384 1.059.592 1.656h-1.336zm-1.496-4.288c-.027.08-.067.19-.12.328a264.182 264.182 0 0 0-.412 1.08c-.083.219-.167.448-.252.688h1.576a80.38 80.38 0 0 0-.248-.688 23.7 23.7 0 0 0-.228-.6 48.423 48.423 0 0 1-.188-.48 27.914 27.914 0 0 0-.128-.328zm4.144.376c0 .219.027.396.08.532.053.136.13.244.228.324.099.08.217.135.356.164.139.03.29.044.456.044a7.055 7.055 0 0 0 .864-.064v-2.632h1.248V49H33.98v-1.856a9.701 9.701 0 0 1-.528.048c-.17.01-.333.016-.488.016-.336 0-.641-.03-.916-.092a1.654 1.654 0 0 1-.7-.328 1.515 1.515 0 0 1-.444-.632c-.104-.264-.156-.599-.156-1.004v-1.696h1.248v1.632zM36.508 49v-5.544h3.744v1.048h-2.496v1.088h2.216v1.024h-2.216v1.336h2.68V49h-3.928zm7.376.112c-.901 0-1.588-.25-2.06-.752-.472-.501-.708-1.213-.708-2.136 0-.459.072-.868.216-1.228.144-.36.341-.664.592-.912.25-.248.55-.436.896-.564a3.232 3.232 0 0 1 1.128-.192c.235 0 .448.017.64.052.192.035.36.075.504.12a2.487 2.487 0 0 1 .568.252l-.36 1.008a2.844 2.844 0 0 0-1.368-.328c-.192 0-.38.032-.564.096a1.275 1.275 0 0 0-.488.308 1.534 1.534 0 0 0-.34.548 2.3 2.3 0 0 0-.128.816c0 .256.028.495.084.716.056.221.147.412.272.572.125.16.29.287.492.38.203.093.448.14.736.14a3.354 3.354 0 0 0 .872-.108c.112-.03.21-.063.296-.1.085-.037.163-.072.232-.104l.344 1c-.176.107-.424.203-.744.288-.32.085-.69.128-1.112.128zm6.936-5.656v1.064h-1.672V49H47.9v-4.48h-1.672v-1.064h4.592zm2.648 5.616c-.304 0-.607-.01-.908-.028a6.417 6.417 0 0 1-.94-.132v-5.376c.256-.048.536-.084.84-.108.304-.024.587-.036.848-.036.352 0 .676.025.972.076.296.05.55.137.764.26.213.123.38.284.5.484s.18.447.18.74c0 .443-.213.792-.64 1.048.352.133.592.315.72.544.128.23.192.488.192.776 0 .581-.212 1.019-.636 1.312-.424.293-1.055.44-1.892.44zm-.632-2.488v1.432c.09.01.19.019.296.024.107.005.224.008.352.008.373 0 .675-.053.904-.16.23-.107.344-.304.344-.592 0-.256-.096-.439-.288-.548-.192-.11-.467-.164-.824-.164h-.784zm0-.952h.608c.384 0 .659-.05.824-.148.165-.099.248-.257.248-.476 0-.224-.085-.381-.256-.472-.17-.09-.421-.136-.752-.136-.107 0-.221.001-.344.004-.123.003-.232.01-.328.02v1.208zm5.208.592c0 .272.033.517.1.736.067.219.163.407.288.564.125.157.279.279.46.364.181.085.39.128.624.128.23 0 .436-.043.62-.128s.339-.207.464-.364.221-.345.288-.564c.067-.219.1-.464.1-.736a2.56 2.56 0 0 0-.1-.74 1.677 1.677 0 0 0-.288-.568 1.266 1.266 0 0 0-.464-.364 1.457 1.457 0 0 0-.62-.128c-.235 0-.443.044-.624.132-.181.088-.335.21-.46.368a1.677 1.677 0 0 0-.288.568 2.53 2.53 0 0 0-.1.732zm4.232 0c0 .475-.07.892-.212 1.252-.141.36-.335.661-.58.904a2.381 2.381 0 0 1-.876.548 3.182 3.182 0 0 1-1.092.184c-.379 0-.736-.061-1.072-.184a2.465 2.465 0 0 1-.88-.548 2.562 2.562 0 0 1-.592-.904 3.355 3.355 0 0 1-.216-1.252c0-.475.075-.892.224-1.252.15-.36.35-.663.604-.908.253-.245.547-.43.88-.552a3.022 3.022 0 0 1 1.052-.184c.379 0 .736.061 1.072.184.336.123.63.307.88.552.25.245.448.548.592.908.144.36.216.777.216 1.252z" fill="#FFF"/></g></svg>