<svg width="102" height="102" viewBox="0 0 102 102" xmlns="http://www.w3.org/2000/svg"><title>Group 48</title><g transform="translate(1 1)" fill="none" fill-rule="evenodd"><circle stroke="#FFF" stroke-width="2" cx="50" cy="50" r="50"/><g fill="#FFF" fill-rule="nonzero"><path d="M85.391 59.824A830.356 830.356 0 0 0 71.038 47.55c-2.433-2.001-4.862-4.038-7.295-6-2.433-1.92-4.666-4.117-7.215-6.117a27.075 27.075 0 0 0-2.433-1.765 23.505 23.505 0 0 0-1.293-.784c-.392-.236-.864-.432-1.332-.393-.236 0-.472.08-.705.157-.236.116-.392.196-.509.236-1.92 1.06-3.373 2.469-4.785 3.645a12.16 12.16 0 0 1-1.097.864l-1.137.901-2.316 1.805-1.176.86v-.824c0-.312-.04-.628-.117-.98a3.518 3.518 0 0 0-.471-1.176c-.313-.393-.705-.705-1.06-.864-.197-.08-.353-.157-.51-.197-.155-.04-.312-.08-.47-.116-.629-.116-1.177-.116-1.726-.116-.548 0-1.06.04-1.568.08-.509.04-.98.079-1.373.079-.432 0-.94-.04-1.489-.08-.548 0-1.176 0-1.881.196-.352.117-.744.276-1.097.589-.196.156-.312.312-.472.508-.116.196-.235.392-.312.588-.08.196-.156.393-.156.549-.04.156-.08.312-.08.472-.04.312-.08.588-.08.864-.08 1.176.04 2.236.117 3.217l.08 1.488c0 .549.04 1.06.08 1.57.079 1.02.155 2 .116 2.94 0 .236-.04.472-.04.668-.04.236-.04.432-.08.588-.08.313-.196.509-.509.785l-2.273 1.96-2.313 2.041c-1.529 1.373-3.02 2.745-4.55 4.118-.392.352-.04.824.393.508a383.817 383.817 0 0 0 5.058-3.49l2.509-1.764 1.256-.9c.392-.313.784-.55 1.293-.941.472-.353.98-1.02 1.216-1.685.117-.353.157-.668.236-.94.04-.277.08-.55.117-.865.08-1.097.04-2.197 0-3.177 0-.509-.04-1.02-.04-1.489v-.824l-.04-.784c-.08-1.02-.156-2.04-.08-2.902 0-.236.04-.432.08-.628 0-.116.04-.196.04-.276 0-.08.04-.116.04-.156.04-.08.04-.116.08-.116 0-.04.079-.04.195-.117.236-.08.628-.116 1.06-.08.432 0 .941.08 1.49.08.627 0 1.136-.04 1.608-.08.472-.04.94-.079 1.412-.079.432 0 .901 0 1.217.08.08 0 .156.04.235.04.08 0 .117.04.157.08.116.039.08.039.08.039s.04.08.079.236c.04.156.04.352.08.548 0 .432 0 .864-.04 1.373-.04.432 0 .864.116 1.256l-.94.745c-1.452 1.136-2.274 2.469-1.845 3.02.432.549 1.961.08 3.374-1.06l4.55-3.569 2.272-1.765 1.137-.9c.352-.276.784-.628 1.177-.94 1.488-1.257 2.861-2.59 4.353-3.374l.117-.08c.352.236.784.472 1.136.705.784.509 1.529 1.06 2.237 1.608 2.432 1.882 4.745 4.078 7.294 6.039 2.51 1.92 5.019 3.842 7.531 5.726a598.145 598.145 0 0 0 15.254 11.177c.662.618 1.014.186.386-.362zM28.96 28.099l.669 1.256c.196.392.352.744.432 1.02.08.313.04.432 0 .509-.08.08-.236.276-.509.432-.276.156-.312.784-.08 1.452.276.628.864 1.02 1.373.705.509-.316 1.057-.748 1.45-1.492.079-.196.155-.392.235-.589.04-.196.08-.392.08-.588 0-.392-.04-.744-.117-1.06a6.48 6.48 0 0 0-.628-1.569l-.668-1.256a20.87 20.87 0 0 1-.432-.9c-.08-.276-.156-.509-.196-.745-.08-.472.04-.784.353-1.216.352-.432.9-.784 1.568-1.097.628-.312 1.333-.548 2.077-.784.196-.04.157-.628-.04-.628-.784-.08-1.608-.117-2.432 0-.824.116-1.685.352-2.51.94a3.702 3.702 0 0 0-.587.549c-.197.196-.313.432-.472.704a4.817 4.817 0 0 0-.276.785c-.04.275-.08.548-.08.824 0 .548.117 1.02.236 1.489.202.475.359.907.555 1.259z"/><path d="M34.335 25.59c-.156.04-.352.08-.549.276-.196.196-.275.548-.235.784 0 .236.08.432.156.588.276.628.588 1.02.94 1.373.157.196.353.352.549.548l.508.472.04.08c.04.04.08.116.08.156 0 .04.04.08.04.08v.04c.04 0-.04.275-.353.667-.275.392-.668.864-1.02 1.569-.08.156-.04.392.156.588.157.196.472.352.785.432.312.116.668.156.9.156.236.04.393.04.432-.04.157-.312.472-.744.864-1.256.196-.275.393-.548.549-.98.156-.392.312-.94.236-1.49a3.087 3.087 0 0 0-.157-.627 2.075 2.075 0 0 0-.275-.509c-.117-.156-.196-.275-.313-.392-.116-.116-.276-.312-.472-.432-.236-.156-.432-.236-.628-.352l-.588-.313c-.352-.196-.744-.392-.98-.548l-.08-.04h-.2v-.04c.04-.08.117-.116.237-.196.08-.08 0-.628-.117-.628-.193.034-.309.034-.505.034zM78.216 59.824A780.73 780.73 0 0 0 62.962 47.39l-3.881-3.058-1.921-1.529-.98-.744-.473-.353c-.116-.116-.275-.235-.392-.352-.588-.548-1.176-1.137-2-1.725a3.016 3.016 0 0 0-.705-.392 1.643 1.643 0 0 0-.472-.156 2.983 2.983 0 0 0-.588-.08c-.824 0-1.373.313-1.844.588-.864.589-1.453 1.217-2.001 1.649l-1.921 1.528-9.412 7.451L34.02 52.1c-.824.628-1.568 1.292-2.353 1.92-1.568 1.257-3.097 2.51-4.705 3.686a10.03 10.03 0 0 0-1.725 1.648c-.196.236-.313.472-.353.668 0 .04-.04.08 0 .117v.196c0 .04-.04.116 0 .116l-.04.04c-.08.04-.08.196.08.276.117.08.236.116.392.156.276.04.589.04.94-.04.706-.156 1.49-.588 2.274-1.136a110.475 110.475 0 0 0 4.786-3.766c.784-.628 1.568-1.293 2.313-1.88l2.353-1.882 9.451-7.49 1.921-1.53c.393-.312.705-.588.98-.863.277-.276.55-.51.825-.668.236-.157.432-.236.472-.196-.08-.04.196.04.472.235.548.353 1.136.901 1.764 1.453.157.156.313.275.549.432l.508.392.98.744 2.001 1.453 4.002 2.9a914.942 914.942 0 0 0 16.118 11.333c.505.39.858-.042.193-.59z"/></g></g></svg>