<svg width="44" height="52" viewBox="0 0 44 52" xmlns="http://www.w3.org/2000/svg"><title>np_warranty_65695_FFFFFF</title><g fill="#FFF" fill-rule="nonzero"><path d="M6.086 12.987h25.692v2.809H6.086zM6.086 7.145h25.692v2.807H6.086zM6.086 18.831h25.692v2.807H6.086zM6.086 24.674h12.226v2.809H6.086z"/><path d="M18.488 41.134H4.82a2.258 2.258 0 0 1-2.257-2.258L2.56 4.598a2.258 2.258 0 0 1 2.257-2.26h27.292a2.258 2.258 0 0 1 2.258 2.26V25.32l2.561-1.468V3.388A3.386 3.386 0 0 0 33.54.002L3.388 0A3.386 3.386 0 0 0 0 3.386v36.701a3.387 3.387 0 0 0 3.388 3.386h13.915l1.185-2.34z"/><path d="M39.273 40.758l4.729-2.251-4.695-2.316 2.968-4.311-5.225.342.417-5.22-4.355 2.906-2.249-4.729-2.316 4.693-4.31-2.966.341 5.223-5.217-.415 2.907 4.353-4.728 2.249 4.695 2.316-2.969 4.31 5.224-.34-.415 5.218 4.355-2.907 2.249 4.728 2.316-4.695 4.31 2.969-.34-5.224 5.218.417-2.91-4.35zm-1.11-4.553l-7.434 8.799c-.374.449-.93.707-1.515.71h-.012a2.01 2.01 0 0 1-1.51-.685l-3.324-3.814a2.005 2.005 0 1 1 3.023-2.633l1.785 2.052 5.929-7.015a2.002 2.002 0 1 1 3.058 2.587z"/></g></svg>