<svg width="102" height="102" viewBox="0 0 102 102" xmlns="http://www.w3.org/2000/svg"><title>Group 52</title><g transform="translate(1 1)" stroke="#FFF" stroke-width="2" fill="none" fill-rule="evenodd"><circle cx="50" cy="50" r="50"/><g stroke-linecap="round" stroke-linejoin="round"><path d="M57.654 43.199V74.66H25.34V43.199M25.34 43.199L41.497 25.34 50 34.736l7.654 8.462H74.66L58.505 25.341"/><path d="M67.007 39.755l-7.653-8.463H51.7l7.654 8.463zM42.347 74.66H74.66V43.199M28.74 53.403h10.205v21.26H28.741z"/><path d="M30.443 50h6.802a1.7 1.7 0 0 1 1.7 1.7v1.703H28.741V51.7a1.7 1.7 0 0 1 1.702-1.7zM28.74 71.26h10.205v3.402H28.741zM44.047 53.403h10.204v21.26H44.047z"/><path d="M45.75 50h6.802a1.7 1.7 0 0 1 1.7 1.7v1.703H44.047V51.7A1.7 1.7 0 0 1 45.75 50zM44.047 71.26h10.204v3.402H44.047zM41.496 25h17.009M61.905 51.7h1.7c.47 0 .85.47.85.851v6.803a.85.85 0 0 1-.85.85h-1.7c-.47 0-.851-.47-.851-.85V52.55c0-.47.38-.85.85-.85zM61.056 55.102h3.4M68.71 51.7h1.7c.47 0 .85.47.85.851v6.803a.85.85 0 0 1-.85.85h-1.7c-.471 0-.852-.47-.852-.85V52.55c0-.47.38-.85.851-.85zM67.858 55.102h3.402M57.654 46.429H74.66M63.198 35.204h-7.653M33.843 56.803v3.402l-1.7 2.55M35.545 62.756l-1.702-2.551M32.143 58.163h3.402M49.15 56.803v3.402l-1.7 2.55M50.852 62.756l-1.702-2.551M47.45 58.163h3.402"/></g></g></svg>