<svg width="43" height="43" viewBox="0 0 43 43" xmlns="http://www.w3.org/2000/svg"><title>Shape</title><path d="M21.5 43c-.895 0-1.798-.056-2.685-.168a2.392 2.392 0 0 1-2.094-2.37v-2.58a.461.461 0 0 0-.332-.455 16.764 16.764 0 0 1-2.536-1.05.465.465 0 0 0-.558.089l-1.824 1.823a2.372 2.372 0 0 1-1.689.702c-.528 0-1.049-.18-1.469-.506a21.624 21.624 0 0 1-3.796-3.796 2.396 2.396 0 0 1 .196-3.158l1.824-1.824a.462.462 0 0 0 .087-.558 16.727 16.727 0 0 1-1.05-2.537.46.46 0 0 0-.456-.334h-2.58c-1.201 0-2.222-.9-2.371-2.094a21.72 21.72 0 0 1 0-5.37 2.395 2.395 0 0 1 2.372-2.092h2.58a.46.46 0 0 0 .454-.332c.279-.87.633-1.725 1.051-2.537a.46.46 0 0 0-.087-.558l-1.824-1.823a2.396 2.396 0 0 1-.198-3.158 21.623 21.623 0 0 1 3.796-3.797 2.377 2.377 0 0 1 3.156.196l1.824 1.824a.465.465 0 0 0 .558.088c.812-.419 1.665-.771 2.536-1.051a.459.459 0 0 0 .336-.456v-2.58c0-1.201.9-2.222 2.093-2.371a21.718 21.718 0 0 1 5.37 0 2.395 2.395 0 0 1 2.093 2.372v2.58c0 .218.125.39.332.455.87.278 1.725.632 2.537 1.05a.465.465 0 0 0 .558-.087l1.823-1.824a2.372 2.372 0 0 1 1.69-.702c.528 0 1.048.18 1.466.506a21.624 21.624 0 0 1 3.797 3.797c.739.95.653 2.307-.196 3.158l-1.824 1.823a.46.46 0 0 0-.088.558c.417.812.77 1.665 1.05 2.537.07.207.24.332.459.332h2.579c1.202 0 2.22.9 2.372 2.094a21.54 21.54 0 0 1 0 5.37 2.395 2.395 0 0 1-2.372 2.092h-2.58a.461.461 0 0 0-.455.333c-.278.867-.63 1.722-1.049 2.536a.46.46 0 0 0 .088.558l1.823 1.824c.851.85.935 2.208.196 3.158a21.624 21.624 0 0 1-3.796 3.796c-.42.327-.94.506-1.467.506a2.366 2.366 0 0 1-1.689-.702l-1.823-1.823a.462.462 0 0 0-.558-.088c-.814.418-1.667.77-2.539 1.049a.464.464 0 0 0-.334.457v2.58c0 1.202-.9 2.22-2.094 2.372-.886.11-1.79.166-2.684.166zm-7.875-8.591c.377 0 .758.093 1.1.269.72.371 1.476.683 2.245.93a2.38 2.38 0 0 1 1.663 2.274v2.58c0 .244.177.446.42.476 1.616.203 3.277.203 4.893 0a.475.475 0 0 0 .42-.476v-2.58c0-1.043.667-1.958 1.661-2.277.771-.246 1.525-.56 2.246-.93a2.416 2.416 0 0 1 2.782.436l1.824 1.823a.475.475 0 0 0 .633.04 19.78 19.78 0 0 0 3.46-3.461.473.473 0 0 0-.04-.633l-1.823-1.823a2.38 2.38 0 0 1-.435-2.783c.372-.72.683-1.477.93-2.246a2.383 2.383 0 0 1 2.277-1.66h2.58a.474.474 0 0 0 .475-.42c.203-1.625.203-3.27 0-4.895a.477.477 0 0 0-.476-.42h-2.58a2.385 2.385 0 0 1-2.276-1.66 14.771 14.771 0 0 0-.93-2.246 2.38 2.38 0 0 1 .435-2.783l1.824-1.823a.473.473 0 0 0 .039-.633 19.78 19.78 0 0 0-3.46-3.46.471.471 0 0 0-.633.039L31.055 7.89a2.411 2.411 0 0 1-2.782.435c-.72-.37-1.475-.683-2.246-.93a2.385 2.385 0 0 1-1.66-2.277V2.54a.475.475 0 0 0-.42-.476 19.8 19.8 0 0 0-4.896 0 .475.475 0 0 0-.418.476v2.58a2.385 2.385 0 0 1-1.661 2.277c-.771.246-1.527.56-2.246.929-.912.47-2.056.29-2.782-.435L10.12 6.067a.478.478 0 0 0-.633-.04 19.717 19.717 0 0 0-3.46 3.46.475.475 0 0 0 .04.634l1.823 1.823c.737.737.913 1.857.435 2.783-.37.72-.683 1.475-.93 2.245a2.385 2.385 0 0 1-2.277 1.662H2.54a.475.475 0 0 0-.476.42 19.697 19.697 0 0 0 0 4.893c.032.245.231.42.476.42h2.58c1.043 0 1.957.668 2.276 1.661.247.771.56 1.527.93 2.246a2.38 2.38 0 0 1-.435 2.783L6.066 32.88a.473.473 0 0 0-.039.633 19.717 19.717 0 0 0 3.46 3.46.471.471 0 0 0 .633-.039l1.824-1.823a2.365 2.365 0 0 1 1.681-.702zm7.874-4.786a8.07 8.07 0 0 1-5.743-2.38 8.07 8.07 0 0 1-2.38-5.743 8.07 8.07 0 0 1 2.38-5.743 8.07 8.07 0 0 1 5.743-2.38 8.07 8.07 0 0 1 5.743 2.38 8.07 8.07 0 0 1 2.38 5.743c0 2.169-.845 4.21-2.38 5.743a8.067 8.067 0 0 1-5.743 2.38zm0-14.334c-1.659 0-3.22.645-4.391 1.82a6.165 6.165 0 0 0-1.82 4.391c0 1.66.646 3.22 1.82 4.392a6.165 6.165 0 0 0 4.391 1.82c1.66 0 3.22-.646 4.392-1.82a6.165 6.165 0 0 0 1.82-4.392c0-1.66-.646-3.22-1.82-4.392a6.165 6.165 0 0 0-4.392-1.82z" fill="#000" fill-rule="nonzero"/></svg>