<svg width="102" height="102" viewBox="0 0 102 102" xmlns="http://www.w3.org/2000/svg"><title>Group 51</title><g transform="translate(1 1)" fill="none" fill-rule="evenodd"><circle stroke="#FFF" stroke-width="2" cx="50" cy="50" r="50"/><g fill="#FFF" fill-rule="nonzero"><path d="M24.938 49.707c.3.17.68.068.852-.23l1.89-3.28.002 28.178c0 .344.278.625.625.625h43.068c.347 0 .625-.28.625-.625V46.824l1.453 2.641a.625.625 0 1 0 1.096-.603l-8.987-16.35a.631.631 0 0 0-.278-.263L50.108 25.06a.622.622 0 0 0-.534 0L34.4 32.251a.625.625 0 0 0-.274.254l-9.419 16.35a.623.623 0 0 0 .23.852zm19.528 15.178l-3.606 6.814V58.014l3.606 6.871zm.703 1.343l3.948 7.522H41.19l3.98-7.522zm5.379-7.864l3.244 6.653-3.244 6.333V58.364zm-1.25 13.04l-3.418-6.517 3.418-6.46v12.976zm5.178-4.984l3.572 7.33H50.72l3.755-7.33zm4.346 6.06l-3.635-7.449 3.632-7.092.003 14.541zm-4.32-8.855L50.75 55.93h7.695l-3.942 7.695zm-9.328-.078l-3.996-7.618h8.025l-4.029 7.618zm14.898 10.202V55.304a.625.625 0 0 0-.625-.625H40.235a.625.625 0 0 0-.625.625V73.75H28.932V50.624H70.75V73.75H60.072zM35.11 33.295l14.73-6.98 14.721 6.977 6.186 11.258.003 4.824H28.93v-5.283c0-.017-.007-.032-.01-.046l6.19-10.75z" stroke="#FFF"/><path d="M40.236 45.654h19.21c.348 0 .626-.28.626-.625v-7.632a.625.625 0 0 0-.625-.624H40.236a.625.625 0 0 0-.625.624v7.632c0 .345.278.625.625.625zm18.586-1.25h-8.357v-6.382h8.354l.003 6.382zM40.86 38.022h8.354v6.382h-8.354v-6.382z"/></g></g></svg>