<svg width="40" height="40" viewBox="0 0 40 40" xmlns="http://www.w3.org/2000/svg"><title>Group 55</title><g fill="none" fill-rule="evenodd"><circle fill="#F9DD1C" opacity=".5" cx="20" cy="20" r="20"/><circle fill="#F9DD1C" cx="20.174" cy="20.174" r="16.174"/><path d="M30.458 18.27c-.784-.335-1.876-.642-3.191-.893-.756-2.233-2.55-3.99-4.761-4.773-.056-.307-.14-.613-.196-.892C21.722 9.256 20.91 8 19.93 8c-.644 0-1.204.53-1.652 1.563-.336.753-.644 1.814-.868 3.098a7.625 7.625 0 0 0-4.705 4.828c-1.316.25-2.409.558-3.165.921C8.504 18.885 8 19.443 8 20.085c0 .976 1.26 1.758 3.752 2.316.336.084.7.14 1.064.224a7.813 7.813 0 0 0 4.65 4.52C17.885 29.405 18.67 32 20.07 32c.98 0 1.764-1.256 2.324-3.739.085-.363.169-.753.225-1.144a7.737 7.737 0 0 0 4.592-4.576c.364-.056.728-.14 1.064-.224 2.492-.586 3.752-1.395 3.725-2.372-.002-.67-.533-1.228-1.542-1.675zm-3.723 1.591c0 .614-.084 1.228-.252 1.814a37.356 37.356 0 0 1-3.389.39c.029-.697.029-1.395.029-2.093v-.837l1.624-.14c.169-.028.336-.139.392-.307a.539.539 0 0 0-.085-.502l-2.1-2.233a50.91 50.91 0 0 0-.28-2.26c2.38 1.033 4.06 3.405 4.06 6.168zM19.93 8.921s.756.029 1.456 2.986l.084.419a8.608 8.608 0 0 0-1.485-.14c-.531 0-1.064.056-1.568.168.504-2.483 1.177-3.433 1.513-3.433zm.055 4.215c.589 0 1.15.084 1.68.223.14.893.28 1.842.365 2.875l-1.569 2.372c-.111.14-.111.334 0 .502.085.14.252.224.392.224h.028l1.289-.112v.754c0 .726 0 1.45-.028 2.148a53.4 53.4 0 0 1-2.157.056h-.251v-1.535a.487.487 0 0 0-.28-.419.472.472 0 0 0-.504.056l-2.296 1.814a48.19 48.19 0 0 1-3.165-.335 6.887 6.887 0 0 1-.28-1.898 6.782 6.782 0 0 1 6.776-6.725zm-8.065 8.316c-2.996-.67-3.024-1.395-3.024-1.424 0-.168.251-.474 1.008-.809.616-.279 1.485-.53 2.52-.753a7.59 7.59 0 0 0-.14 1.395c0 .587.056 1.145.196 1.703-.167-.028-.364-.085-.56-.112zm1.96 1.311c.84.111 1.765.195 2.717.28l2.38 1.841c.084.056.196.112.28.112a.49.49 0 0 0 .476-.475v-1.368h.251c.729 0 1.429-.028 2.1-.055-.055 1.172-.195 2.288-.335 3.293-.56.168-1.176.25-1.792.25a6.916 6.916 0 0 1-6.076-3.878zm7.59 5.218c-.672 2.986-1.4 3.014-1.429 3.014-.168 0-.476-.25-.811-1.005-.309-.642-.56-1.563-.785-2.622.505.11 1.009.14 1.54.14.56 0 1.092-.056 1.625-.169-.056.224-.084.447-.14.642zm1.316-2.009c.111-.92.224-1.925.28-2.985a46.49 46.49 0 0 0 3.052-.335 6.758 6.758 0 0 1-3.332 3.32zm5.265-4.633a3.285 3.285 0 0 1-.56.112c.111-.53.168-1.061.168-1.62a8.52 8.52 0 0 0-.14-1.478c2.549.502 3.53 1.171 3.53 1.506.026.058-.002.783-2.998 1.48z" fill="#000" fill-rule="nonzero"/></g></svg>