<svg width="102" height="102" viewBox="0 0 102 102" xmlns="http://www.w3.org/2000/svg"><title>Group 54</title><g transform="translate(1 1)" fill="none" fill-rule="evenodd"><circle stroke="#FFF" stroke-width="2" cx="50" cy="50" r="50"/><g fill="#FFF" fill-rule="nonzero"><path d="M70.576 60.62l1.675-8.584-3.324-.266-1.49 7.644H55.522v2.146h2.88l-2.83 7.252 3.248.52 3.03-7.771h2.41l3.031 7.771 3.248-.52-2.83-7.252h1.206c.845 0 1.557-.402 1.661-.94zM33.709 69.332l3.03-7.772h2.553l4.616 7.888 3.135-.754-4.173-7.134h2.608v-2.146H33.562l-1.49-7.647-3.323.266 1.674 8.585c.105.54.816.942 1.662.942h1.205l-2.829 7.252 3.248.52z"/><path d="M72.263 37.95C72.263 30.26 62.499 24 50.5 24c-11.999 0-21.763 6.26-21.763 13.95v1.074c0 2.366 3.005 4.292 6.697 4.292 2.008 0 3.791-.582 5.022-1.483 1.23.901 3.013 1.483 5.022 1.483 1.226 0 2.36-.228 3.348-.595v11.327H37.107v2.146h11.72v15.024h-8.371v2.146h20.09v-2.146h-8.371V56.194h11.719v-2.146h-11.72V42.72a9.613 9.613 0 0 0 3.349.595c2.009 0 3.792-.582 5.022-1.483 1.23.901 3.014 1.483 5.023 1.483 3.69 0 6.696-1.926 6.696-4.292l-.001-1.073zm-3.348 1.074c0 1.183-1.503 2.146-3.349 2.146-1.845 0-3.348-.963-3.348-2.146V37.95H58.87v1.073c0 1.183-1.502 2.146-3.348 2.146-1.846 0-3.348-.963-3.348-2.146V37.95h-3.349v1.073c0 1.183-1.502 2.146-3.348 2.146-1.846 0-3.348-.963-3.348-2.146V37.95H38.78v1.073c0 1.183-1.503 2.146-3.349 2.146-1.845 0-3.348-.963-3.348-2.146V37.95c0-6.51 8.262-11.805 18.416-11.805s18.416 5.296 18.416 11.805l-.001 1.073z"/></g></g></svg>