<svg width="102" height="102" viewBox="0 0 102 102" xmlns="http://www.w3.org/2000/svg"><title>Group 46</title><g transform="translate(1 1)" fill="none" fill-rule="evenodd"><circle stroke="#FFF" stroke-width="2" cx="50" cy="50" r="50"/><path d="M79.933 73.023V35.598h-1.367A6.272 6.272 0 0 0 79.78 28.8a6.276 6.276 0 1 0-10.32 6.797h-1.024v3.547a31.242 31.242 0 0 0-3.678-2.265V32h-1.97v3.939a32.639 32.639 0 0 0-5.08-1.79v-2.85h-1.97v2.411-.002a31.1 31.1 0 0 0-5.089-.552V30.59h-1.97v2.567a31.15 31.15 0 0 0-5.088.61V31.3h-1.97v2.909a32.619 32.619 0 0 0-5.088 1.851V32h-1.97v5.076a31.683 31.683 0 0 0-3.321 2.075v-3.544h-1.393a6.28 6.28 0 0 0 1.213-6.8 6.273 6.273 0 0 0-5.765-3.798 6.274 6.274 0 0 0-5.768 3.799 6.28 6.28 0 0 0 1.213 6.799h-1.018V73.03H17V75h16.946v-1.97h-2.724v-6.499h37.214v6.5h-2.723V75h16.945v-1.97l-2.725-.007zM69.698 31.299a4.307 4.307 0 0 1 7.35-3.047 4.303 4.303 0 0 1 .934 4.694 4.302 4.302 0 0 1-3.978 2.66 4.312 4.312 0 0 1-4.306-4.307zm-6.91 6.848v26.407h-5.08V36.208a31.276 31.276 0 0 1 5.08 1.94zm-7.05-2.416v28.823h-5.101v-29.42c1.716.045 3.421.245 5.101.597zm-7.058-.59v29.413h-5.101V35.808a29.045 29.045 0 0 1 5.088-.669l.013.002zm-7.071 1.167v28.233H36.52V38.278a31.48 31.48 0 0 1 5.089-1.97zM20.986 31.3a4.306 4.306 0 0 1 7.353-3.046 4.308 4.308 0 0 1-3.047 7.353 4.312 4.312 0 0 1-4.306-4.307zm8.266 41.724h-7.559V37.568h2.627v8.535h1.97v-8.535h2.975v35.455h-.013zm1.97-31.385v.002a27.595 27.595 0 0 1 3.321-2.267v25.181h-3.321V41.638zM64.758 64.55V39.163a28.179 28.179 0 0 1 3.678 2.47v22.912l-3.678.006zm5.648 8.468V37.564h2.626V46.1h1.97v-8.536h2.975V73.02h-7.571z" fill="#FFF" fill-rule="nonzero"/></g></svg>