<svg width="102" height="102" viewBox="0 0 102 102" xmlns="http://www.w3.org/2000/svg"><title>Group 47</title><g transform="translate(1 1)" fill="none" fill-rule="evenodd"><circle stroke="#FFF" stroke-width="2" cx="50" cy="50" r="50"/><g fill="#FFF" fill-rule="nonzero"><path d="M63.543 55.915a.887.887 0 0 1-.279-.381l-1.31-6.104a2.707 2.707 0 0 0-2.632-2.123H40.665a2.674 2.674 0 0 0-2.628 2.11L36.69 55.47a.914.914 0 0 1-.316.507l-3.321 2.657a2.666 2.666 0 0 0-1.005 2.1v9.013c.002.76.33 1.485.897 1.992v3.393a1.797 1.797 0 0 0 1.795 1.795h3.59a1.797 1.797 0 0 0 1.796-1.795V72.44h19.747v2.693a1.797 1.797 0 0 0 1.795 1.795h3.59a1.797 1.797 0 0 0 1.796-1.795V71.74a2.685 2.685 0 0 0 .898-1.992v-9.013a2.682 2.682 0 0 0-1.01-2.102l-3.4-2.718zm-3.344-6.103l1.2 5.574H48.283a3.223 3.223 0 0 0-.559-3.777 1.43 1.43 0 0 1-.18-1.795l.472-.71h11.306c.422 0 .787.295.877.708zm-16.296 1.795a1.427 1.427 0 0 1-.18-1.795l.472-.71h1.698a3.217 3.217 0 0 0 .561 3.775c.478.48.552 1.23.18 1.795l-.471.71h-1.701a3.224 3.224 0 0 0-.559-3.773v-.002zm-4.109-1.804c.09-.411.451-.7.87-.7h1.41a3.223 3.223 0 0 0 .559 3.776c.478.48.554 1.23.18 1.795l-.472.71h-3.788l1.241-5.581zm-5.612 10.232l3.321-2.657h-.002a2.49 2.49 0 0 0 .209-.197h24.565c.05.045.09.09.146.134l3.4 2.72c.213.17.336.429.336.7v6.32H33.843v-6.32c0-.271.124-.53.337-.7h.002zm4.15 15.098H34.74V72.44h3.59v2.693zm1.794-4.488h-5.385a.897.897 0 0 1-.898-.898v-.898h32.314v.898a.899.899 0 0 1-.898.898H40.126zm25.133 4.488h-3.59V72.44h3.59v2.693z"/><path d="M37.882 66.157a3.142 3.142 0 0 0 2.222-5.363 3.143 3.143 0 1 0-2.222 5.363zm0-4.488a1.345 1.345 0 0 1 .952 2.298 1.345 1.345 0 1 1-.951-2.298zM62.118 66.157a3.142 3.142 0 0 0 2.222-5.363 3.143 3.143 0 1 0-2.222 5.363zm0-4.488a1.345 1.345 0 0 1 .951 2.298 1.345 1.345 0 1 1-.951-2.298zM44.614 66.157h10.772a1.797 1.797 0 0 0 1.795-1.795v-2.693a1.797 1.797 0 0 0-1.795-1.795H44.614c-.992 0-1.795.803-1.795 1.795v2.693a1.797 1.797 0 0 0 1.795 1.795zm0-4.488h10.772v2.693H44.614v-2.693z"/><path d="M76.463 37.546l-26.03-14.362a.888.888 0 0 0-.866 0l-26.03 14.362a.898.898 0 0 0 .433 1.683h.897v37.699h5.386V43.717h39.495v33.211h5.385v-37.7h.898a.898.898 0 0 0 .433-1.682zM50 24.995l22.546 12.438H27.454L50 24.995zm23.338 50.137h-1.795v-33.21H28.457v33.21h-1.795V39.228h46.676v35.904z"/><path d="M41.922 36.536h7.18v-8.633l-7.18 3.59v5.043zm1.795-3.934l3.59-1.795v3.933h-3.59v-2.138zM50.897 27.903v8.633h7.181v-5.043l-7.18-3.59zm5.386 6.837h-3.59v-3.933l3.59 1.795v2.138z"/></g></g></svg>