<svg width="40" height="40" viewBox="0 0 40 40" xmlns="http://www.w3.org/2000/svg"><title>Group 4</title><g fill="none" fill-rule="evenodd"><circle fill="#F9DD1C" opacity=".5" cx="20" cy="20" r="20"/><circle fill="#F9DD1C" cx="19.652" cy="20" r="16.174"/><path d="M24.8 14.957v.12l-.02-.12c-.876.007-1.802.372-2.463.819-.995.68-1.68 1.612-2.301 2.38-.058.071-.581.779-1.163 1.548-.58.768-1.217 1.595-1.475 1.87-.432.463-.76.958-1.217 1.26-.448.304-1.023.495-1.274.495h-.02c-.865 0-1.643-.4-2.215-.97a3.183 3.183 0 0 1-.92-2.243c.002-.87.35-1.684.92-2.255.572-.57 1.35-.955 2.22-.955h.016c.259 0 .693.175 1.156.495.66.445 1.2 1.026 1.735 1.673l.097.124 1.224-1.64-.063-.072c-.085-.098-.015-.039-.107-.138-.508-.554-.939-1.12-1.602-1.573-.663-.446-1.58-.812-2.454-.818a5.133 5.133 0 0 0-.002 10.266c.876-.007 1.792-.373 2.453-.82.994-.68 1.674-1.61 2.296-2.379.057-.07.579-.778 1.16-1.548.578-.766 1.215-1.594 1.474-1.869.431-.463.918-.931 1.376-1.234.45-.303.865-.467 1.116-.467h.008c.877 0 1.655.372 2.226.943.57.57.918 1.36.919 2.23 0 .87-.349 1.704-.92 2.275-.57.57-1.348.975-2.219.975h-.016c-.258 0-.853-.202-1.316-.523-.659-.444-1.085-1.084-1.619-1.732l-.098-.13-1.223 1.637.063.07c.085.098.06.082.152.182.508.554.939 1.118 1.602 1.572.662.446 1.579.812 2.455.818 2.836-.001 5.151-2.298 5.152-5.133 0-2.834-2.544-5.132-5.113-5.133z" fill="#000" fill-rule="nonzero" stroke="#F9DD1C" stroke-width="1.043"/></g></svg>