<svg width="100" height="100" viewBox="0 0 100 100" xmlns="http://www.w3.org/2000/svg"><title>Group 57</title><g fill-rule="nonzero" fill="none"><circle cx="49.981" cy="50" r="49.903" fill="#57646E"/><path d="M30.487 28.947h1.443a8.986 8.986 0 0 1-.429-2.729 8.752 8.752 0 0 1 8.752-8.752 8.681 8.681 0 0 1 6.53 2.943c1.794-3.762 5.654-6.374 10.098-6.374 6.18 0 11.19 5.01 11.19 11.19 0 1.305-.235 2.553-.644 3.722h1.5c4.348 0 7.896 3.529 7.896 7.895v.293c0 4.346-3.529 7.894-7.895 7.894h-38.44c-4.348 0-7.895-3.528-7.895-7.894v-.293c0-4.366 3.547-7.895 7.894-7.895z" fill="#FFF"/><g fill="#FFF"><path d="M36.842 56.803c-.663 1.677-2.554 2.515-4.23 1.871-1.676-.662-2.515-2.553-1.871-4.23.663-1.676 5.497-5.107 5.497-5.107s1.247 5.79.604 7.466zM70.643 68.772c-1.13 2.924-4.444 4.386-7.368 3.255-2.924-1.13-4.386-4.444-3.256-7.368 1.131-2.924 9.572-8.889 9.572-8.889s2.183 10.078 1.052 13.002z"/></g><path d="M46.57 84.97l3.703-25.223h-9.337l.039-.117h-.059L54.66 25.146l-3.43 25.244h9.434l-.02.058h.059l-1.774 4.328-1.969 4.97h-.058L46.569 84.972zm-.956-28.615h8.246l-.585 3.937 1.618-3.937h.039l1.013-2.554h-8.304l.546-4.035-2.573 6.472h.039l-.039.117z" fill="#57646E"/><path fill="#EDB930" d="M58.285 52.144l.02-.058H49.434l1.988-14.64-8.148 20.488h.039l-.04.117h8.792l-2.144 14.58 5.965-14.58h.058l1.56-3.957.8-1.95z"/></g></svg>