<svg width="100" height="100" viewBox="0 0 100 100" xmlns="http://www.w3.org/2000/svg"><title>Wheather Icons-48</title><g fill-rule="nonzero" fill="none"><circle cx="49.981" cy="50.078" r="49.903" fill="#4D917B"/><g fill="#FFF"><path d="M19.961 33.372h56.218c2.437 0 2.437-3.781 0-3.781H19.961c-2.437 0-2.437 3.781 0 3.781zM33.314 43.938H77.837c1.949 0 1.949-3.022 0-3.022H33.312c-1.948-.02-1.948 3.022 0 3.022zM28.986 51.579h41.677c1.462 0 1.462-2.28 0-2.28H28.986c-1.462.019-1.462 2.28 0 2.28zM42.34 58.11H72.65c.975 0 .975-1.521 0-1.521H42.34c-.974.02-.974 1.52 0 1.52zM33.43 64.951h21.15c.742 0 .742-1.13 0-1.13H33.43c-.74 0-.74 1.13 0 1.13zM44.483 68.421h14.523c.74 0 .74-1.13 0-1.13H44.483c-.74 0-.74 1.13 0 1.13z"/></g></g></svg>