<svg width="100" height="100" viewBox="0 0 100 100" xmlns="http://www.w3.org/2000/svg"><title>Wheather Icons-38</title><g fill-rule="nonzero" fill="none"><circle cx="49.981" cy="50.039" r="49.903" fill="#5082A9"/><path d="M29.24 41.89h1.5a9.034 9.034 0 0 1-.448-2.826 9.08 9.08 0 0 1 9.084-9.083c2.69 0 5.127 1.17 6.784 3.04a11.587 11.587 0 0 1 10.487-6.608c6.413 0 11.599 5.205 11.599 11.599 0 1.364-.234 2.65-.663 3.86h1.56a8.186 8.186 0 0 1 8.186 8.186v.293a8.186 8.186 0 0 1-8.187 8.187H29.24a8.186 8.186 0 0 1-8.187-8.187v-.293c0-4.502 3.664-8.167 8.187-8.167z" fill="#FFF"/><g fill="#5082A9"><path d="M37.622 48.44c2.436 2.145 6.043.37 6.55-2.65.253-1.502-.195-2.769-1.131-3.938-.916-1.13-2.554-1.482-3.918-1.618-5.887-.546-9.493 6.394-7.427 11.364 2.34 5.634 8.772 7.837 14.464 7.174 3.138-.37 6.14-1.384 9.181-2.203 3.197-.857 6.413-1.189 9.727-1.228 4.835-.058 9.669.39 14.503 0 1.092-.078 2.008-.858 2.008-2.008 0-1.033-.916-2.105-2.008-2.007-6.043.467-12.105-.293-18.129.155-3.06.234-6.003.878-8.947 1.716-2.67.76-5.341 1.598-8.129 1.696-3.976.136-9.434-2.183-9.24-6.881.079-1.735 1.443-3.529 3.217-3.743.565-.058 1.54-.078 1.871.448.117.195.04.43-.058.624-.059.098.253.176.331.254-1.949-1.696-4.814 1.15-2.865 2.846zM41.696 70.838s-.526-.02-.39-.195c-.35.41-1.364.117-1.774 0-1.5-.468-1.93-2.32-1.52-3.645.468-1.52 2.183-2.612 3.606-3.1 2.086-.74 4.347-.623 6.51-.409 2.223.215 4.426.663 6.628.955 2.437.312 4.913.332 7.369.449 5.4.234 10.78.507 16.18.526 2.592.02 2.592-4.015 0-4.035-6.746-.02-13.451-.429-20.196-.682-5.75-.215-11.54-2.417-17.27-.8-2.554.722-4.933 2.437-6.2 4.776-1.364 2.515-1.013 5.712.839 7.876 1.793 2.105 5.048 2.943 7.563 1.696 2.807-1.385 3.021-5.595.156-7.057-1.111-.585-2.515-.546-3.567.156-2.106 1.462-.098 4.951 2.066 3.49z"/></g><g fill="#FFF"><path d="M38.616 47.466c1.715 1.5 3.918-.137 4.25-2.027.39-2.32-1.696-3.626-3.704-3.802-5.049-.467-7.817 5.439-6.102 9.61 2.106 5.05 8.149 6.745 13.12 6.16 3.001-.35 5.886-1.364 8.81-2.163 3.314-.897 6.667-1.228 10.078-1.267 4.835-.059 9.669.39 14.503 0 .8-.059.819-1.326 0-1.267-6.043.467-12.105-.293-18.129.155-2.923.215-5.77.858-8.577 1.677-2.787.8-5.575 1.637-8.499 1.754-4.717.176-10.857-2.787-10.623-8.265.117-2.553 2.046-4.815 4.6-5.127 1.111-.136 2.437.137 3.08 1.131.702 1.092-.565 3.723-1.89 2.554-.644-.546-1.54.331-.917.877zM40.994 69.63c1.267-.858 2.105 1.052 1.287 1.988-.722.819-2.223.624-3.12.35-2.202-.681-3.118-3.274-2.494-5.34.623-2.008 2.67-3.412 4.561-4.074 2.183-.78 4.6-.683 6.881-.449 2.222.215 4.425.663 6.628.955 2.456.312 4.912.332 7.368.449 5.4.234 10.78.507 16.18.526.818 0 .818-1.247 0-1.267-6.726-.02-13.45-.429-20.195-.682-5.595-.195-11.345-2.417-16.9-.838-4.192 1.189-8.247 6.257-4.757 10.35 1.384 1.599 3.898 2.457 5.887 1.482 1.89-.936 2.124-3.645.156-4.678-.702-.351-1.52-.273-2.164.156-.624.448.02 1.54.682 1.072z"/></g></g></svg>