<svg width="100" height="100" viewBox="0 0 100 100" xmlns="http://www.w3.org/2000/svg"><title>Wheather Icons-36</title><g fill-rule="nonzero" fill="none"><circle cx="49.981" cy="50.039" r="49.903" fill="#5082A9"/><path d="M28.85 33.88l1.442-.02a8.983 8.983 0 0 1-.467-2.71c-.059-4.834 3.82-8.791 8.635-8.85a8.66 8.66 0 0 1 6.57 2.866c1.754-3.782 5.574-6.433 10.019-6.492 6.18-.078 11.247 4.874 11.306 11.053a10.845 10.845 0 0 1-.605 3.743l1.501-.02c4.347-.058 7.934 3.431 7.973 7.798v.292c.059 4.347-3.43 7.934-7.797 7.973l-38.421.448c-4.347.058-7.934-3.43-7.973-7.797v-.293a7.916 7.916 0 0 1 7.817-7.992z" fill="#FFF"/><path d="M39.123 57.895c-1.54.02-2.768-1.17-2.788-2.69l-.02-2.086-1.461 1.5a2.73 2.73 0 0 1-1.891.84c-1.111.019-2.144-.683-2.593-1.716a2.67 2.67 0 0 1 .566-2.944l1.462-1.5-2.086.019c-1.52.02-2.73-1.17-2.749-2.71-.02-1.54 1.17-2.768 2.69-2.787l2.086-.02-1.5-1.462c-.8-.78-1.053-1.91-.644-2.924.429-1.052 1.442-1.774 2.554-1.793a2.75 2.75 0 0 1 1.91.78l1.5 1.462-.019-2.086c-.02-1.52 1.17-2.73 2.71-2.749 1.54-.02 2.768 1.17 2.787 2.69l.02 2.086 1.462-1.5a2.73 2.73 0 0 1 1.89-.84c1.112-.019 2.145.683 2.593 1.716a2.67 2.67 0 0 1-.565 2.944l-1.462 1.5 2.086-.019c1.52-.02 2.729 1.17 2.748 2.71.02 1.54-1.17 2.768-2.69 2.787l-2.085.02 1.5 1.462c.8.78 1.053 1.91.644 2.924-.43 1.052-1.443 1.774-2.554 1.793a2.75 2.75 0 0 1-1.91-.78l-1.501-1.462.02 2.086c.038 1.52-1.17 2.73-2.71 2.749z" fill="#5082A9"/><path d="M47.72 45.38c-2.125.02-4.25.059-6.394.078 1.15-1.17 2.3-2.359 3.45-3.528.331-.351.682-.682 1.013-1.033.878-.897-.506-2.242-1.384-1.365-1.481 1.52-2.982 3.041-4.463 4.562l-.059-4.932c0-.488-.02-.955-.02-1.443-.019-1.247-1.949-1.228-1.93.02.02 2.125.06 4.25.079 6.394-1.17-1.15-2.359-2.3-3.529-3.45-.35-.332-.682-.683-1.033-1.014-.896-.878-2.241.506-1.364 1.384 1.52 1.481 3.04 2.982 4.561 4.464l-4.932.058c-.487 0-.955.02-1.442.02-1.248.019-1.228 1.949.02 1.93 2.124-.02 4.249-.06 6.393-.079-1.15 1.17-2.3 2.36-3.45 3.529-.332.35-.682.682-1.014 1.033-.877.896.507 2.242 1.384 1.364 1.482-1.52 2.983-3.04 4.464-4.561l.059 4.932c0 .487.02.955.02 1.442.019 1.248 1.948 1.228 1.929-.02-.02-2.124-.059-4.249-.078-6.393 1.17 1.15 2.359 2.3 3.528 3.45.351.332.683.682 1.033 1.014.897.877 2.242-.507 1.365-1.384-1.52-1.482-3.041-2.983-4.561-4.464l4.931-.059c.488 0 .955-.02 1.443-.02 1.247 0 1.228-1.948-.02-1.929z" fill="#FFF"/><g><path d="M65.926 81.287c-1.95.019-3.49-1.462-3.509-3.392l-.039-2.651-1.852 1.89a3.438 3.438 0 0 1-2.397 1.053c-1.404.02-2.73-.858-3.295-2.183-.546-1.287-.273-2.71.722-3.723l1.851-1.891-2.65.039c-1.93.02-3.451-1.482-3.47-3.43-.02-1.95 1.462-3.49 3.391-3.51l2.651-.039-1.89-1.852c-1.014-.994-1.326-2.417-.8-3.703.527-1.326 1.833-2.242 3.236-2.261.897-.02 1.755.35 2.417.994l1.891 1.852-.039-2.652c-.02-1.93 1.482-3.45 3.431-3.47 1.95-.019 3.49 1.463 3.509 3.392l.039 2.652 1.852-1.891a3.438 3.438 0 0 1 2.397-1.053c1.404-.02 2.73.858 3.295 2.183.545 1.287.273 2.71-.722 3.724l-1.851 1.89 2.65-.039c1.93-.02 3.45 1.482 3.47 3.431.02 1.95-1.462 3.49-3.391 3.509l-2.651.039 1.89 1.852c1.014.994 1.326 2.417.8 3.703-.527 1.326-1.833 2.242-3.236 2.262-.897.02-1.755-.351-2.417-.994l-1.891-1.852.039 2.65c.02 1.93-1.482 3.451-3.431 3.47z" fill="#5082A9"/><path d="M76.764 65.458c-2.69.04-5.38.059-8.07.098 1.462-1.482 2.904-2.983 4.366-4.464.43-.43.858-.878 1.287-1.306 1.111-1.131-.643-2.846-1.754-1.716-1.872 1.93-3.763 3.84-5.634 5.77-.02-2.086-.039-4.171-.078-6.238 0-.604-.02-1.228-.02-1.832-.019-1.579-2.475-1.56-2.456.02.04 2.69.059 5.38.098 8.07-1.482-1.462-2.983-2.905-4.464-4.367-.429-.429-.877-.858-1.306-1.286-1.13-1.111-2.846.643-1.715 1.754 1.93 1.871 3.84 3.762 5.77 5.634-2.086.019-4.172.039-6.238.078-.605 0-1.228.019-1.833.019-1.579.02-1.56 2.476.02 2.456 2.69-.039 5.38-.058 8.07-.097-1.462 1.481-2.904 2.982-4.366 4.464-.43.428-.858.877-1.287 1.306-1.111 1.13.643 2.846 1.754 1.715 1.872-1.93 3.763-3.84 5.634-5.77.02 2.086.039 4.172.078 6.238 0 .604.02 1.208.02 1.832.019 1.58 2.475 1.56 2.456-.02-.04-2.69-.059-5.38-.098-8.07 1.482 1.463 2.983 2.905 4.464 4.367.429.429.877.858 1.306 1.287 1.13 1.11 2.846-.644 1.715-1.755-1.93-1.871-3.84-3.762-5.77-5.633 2.086-.02 4.172-.04 6.238-.078.605 0 1.228-.02 1.833-.02 1.598-.02 1.56-2.456-.02-2.456z" fill="#FFF"/></g></g></svg>