<svg width="29" height="52" viewBox="0 0 29 52" xmlns="http://www.w3.org/2000/svg"><title>Shape</title><path d="M10.77 0c-.595.057-1.098.612-1.096 1.21v2.418H4.837A4.25 4.25 0 0 0 .604 7.86v39.907A4.25 4.25 0 0 0 4.837 52h19.349a4.25 4.25 0 0 0 4.232-4.233V7.86a4.25 4.25 0 0 0-4.232-4.232h-4.837V1.209c0-.633-.577-1.209-1.21-1.209h-7.37.001zM4.837 6.047h19.349C25.21 6.047 26 6.835 26 7.86v39.907a1.785 1.785 0 0 1-1.814 1.814H4.836a1.785 1.785 0 0 1-1.813-1.814V7.86c0-1.025.789-1.813 1.814-1.813zm8.049 8.465c-.489.045-.93.415-1.058.888L8.2 28.702c-.198.716.427 1.533 1.171 1.53h3.76l-3.098 9.278c-.2.565.092 1.257.635 1.507.543.248 1.261.017 1.557-.505l7.86-13.303c.42-.73-.198-1.809-1.04-1.813h-3.381l5.045-9.089c.406-.732-.222-1.795-1.058-1.795h-6.765z" fill="#FFF" fill-rule="nonzero"/></svg>