<svg width="100" height="100" viewBox="0 0 100 100" xmlns="http://www.w3.org/2000/svg"><title>Wheather Icons-41</title><g fill-rule="nonzero" fill="none"><circle cx="49.981" cy="50.058" r="49.903" fill="#5082A9"/><g transform="translate(32.359 22.027)"><path d="M15.692 43.743a5.266 5.266 0 0 1-5.263 5.263 5.266 5.266 0 0 1-5.263-5.263V5.36A5.266 5.266 0 0 1 10.429.097a5.266 5.266 0 0 1 5.263 5.264v38.382z" fill="#FFF"/><circle fill="#FFF" cx="10.429" cy="47.758" r="10.331"/><g transform="translate(5.848 4.678)"><path d="M6.257 43.08a1.697 1.697 0 0 1-3.392 0V1.754a1.697 1.697 0 0 1 3.392 0V43.08z" fill="#A0ADB8"/><circle fill="#C9553E" cx="4.581" cy="43.704" r="4.425"/><path d="M2.885 23.255V43.08a1.697 1.697 0 0 0 3.392 0V23.255H2.885z" fill="#C9553E"/></g></g><g fill="#1F3049"><path d="M22.535 30.116h10.33v2.222h-10.33zM22.535 35.731h10.33v2.222h-10.33zM18.324 41.345h14.542v2.222H18.324z"/><g><path d="M22.535 46.628h10.33v2.222h-10.33zM22.535 52.242h10.33v2.222h-10.33zM18.324 57.856h14.542v2.222H18.324z"/></g></g><g transform="translate(54.776 36.062)"><circle fill="#E6CA56" cx="14.932" cy="15.049" r="8.441"/><g fill="#E4C856"><path d="M15.653 4.425c0 .429-.37.76-.819.76-.448 0-.818-.35-.818-.76V.935c0-.428.37-.78.818-.78.449 0 .819.352.819.78v3.49zM10.234 5.478c.214.37.058.857-.331 1.072-.39.234-.878.117-1.092-.254L7.057 3.275c-.215-.37-.059-.858.33-1.072.39-.234.878-.117 1.093.253l1.754 3.022zM6.082 9.123c.37.214.487.702.253 1.091-.234.39-.701.546-1.072.332L2.242 8.79c-.37-.214-.488-.701-.254-1.091.234-.39.702-.546 1.072-.332l3.022 1.755zM4.308 14.347c.429 0 .78.37.78.819 0 .448-.351.818-.78.818H.818c-.428 0-.779-.37-.779-.818 0-.449.35-.819.78-.819h3.489zM5.36 19.766c.371-.214.858-.058 1.073.331.234.39.117.878-.254 1.092l-3.021 1.754c-.37.215-.858.059-1.072-.33-.234-.39-.117-.878.253-1.093l3.022-1.754zM9.006 23.918c.214-.37.702-.487 1.091-.253.39.234.546.701.332 1.072l-1.755 3.021c-.214.37-.701.488-1.091.254-.39-.234-.546-.702-.332-1.072l1.755-3.022zM14.23 25.692c0-.429.37-.78.819-.78.448 0 .818.351.818.78v3.49c0 .428-.37.779-.818.779-.449 0-.819-.35-.819-.78v-3.489zM19.63 24.64c-.215-.371-.059-.858.331-1.073.39-.234.877-.117 1.092.254l1.754 3.021c.214.37.058.858-.331 1.072-.39.234-.878.117-1.092-.253l-1.754-3.022zM23.801 20.994c-.37-.214-.487-.702-.253-1.091.234-.39.702-.546 1.072-.332l3.021 1.755c.37.214.488.701.254 1.091-.234.39-.702.546-1.072.332L23.8 20.994zM25.575 15.77c-.429 0-.78-.37-.78-.819 0-.448.351-.818.78-.818h3.49c.428 0 .78.37.78.818 0 .449-.352.819-.78.819h-3.49zM24.503 10.35c-.37.215-.858.06-1.072-.33-.234-.39-.117-.878.253-1.092l3.022-1.755c.37-.214.857-.058 1.072.332.234.39.117.877-.254 1.091l-3.021 1.755zM20.877 6.199c-.214.37-.702.487-1.091.253-.39-.234-.546-.702-.332-1.072L21.21 2.36c.214-.37.701-.488 1.091-.254.39.234.527.702.332 1.072L20.877 6.2z"/></g></g></g></svg>