<svg width="41" height="52" viewBox="0 0 41 52" xmlns="http://www.w3.org/2000/svg"><title>np_protection_1623034_FFFFFF</title><g fill="#FFF" fill-rule="nonzero"><path d="M20.235 0L0 10.496v20.857c0 8.464 4.991 16.05 12.711 19.165 4.793 1.965 10.118 1.965 14.907.067l.467-.135c7.852-3.048 12.978-10.698 12.912-19.231L41 10.496 20.235 0zm16.77 31.216c0 6.838-4.127 13.003-10.383 15.44l-.4.202c-3.86 1.49-8.186 1.49-12.046-.135-6.189-2.507-10.25-8.601-10.184-15.372L3.995 13 20.3 4.537 37.007 13l-.002 18.215z"/><path d="M14.04 23.952L11 26.562l5.814 6.898L18.003 35l.066-.067.068.067 1.517-1.274L33 23.214 30.623 20l-11.958 9.443z"/></g></svg>