<svg width="100" height="100" viewBox="0 0 100 100" xmlns="http://www.w3.org/2000/svg"><title>Wheather Icons-49</title><g fill-rule="nonzero" fill="none"><circle cx="49.981" cy="50.078" r="49.903" fill="#4D917B"/><g fill="#FFF"><path d="M49.474 23.392v54.093c0 1.131 1.754 1.131 1.754 0v-25.4-28.44-.253c0-1.13-1.754-1.13-1.754 0z"/><path d="M55.79 26.998l-6.082 6.082h1.247l-6.082-6.082c-.799-.8-2.046.448-1.247 1.248l6.082 6.081c.331.332.896.332 1.247 0l6.082-6.081c.8-.82-.448-2.047-1.248-1.248zM44.893 73.88l6.082-6.083h-1.248l6.082 6.082c.8.8 2.047-.448 1.248-1.247l-6.082-6.082c-.332-.332-.897-.332-1.248 0l-6.082 6.082c-.799.818.449 2.046 1.248 1.247z"/><g><path d="M77.388 49.552H23.294c-1.13 0-1.13 1.754 0 1.754h54.094c1.13 0 1.13-1.754 0-1.754z"/><path d="M73.782 55.887L67.7 49.805v1.248l6.082-6.082c.799-.8-.449-2.047-1.248-1.248l-6.082 6.082c-.331.331-.331.897 0 1.248l6.082 6.082c.819.799 2.047-.449 1.248-1.248zM26.9 44.99l6.082 6.082v-1.247l-6.081 6.081c-.8.8.448 2.047 1.247 1.248l6.082-6.082c.331-.331.331-.897 0-1.247l-6.082-6.082c-.819-.8-2.047.448-1.247 1.247z"/></g><g><path d="M30.604 31.93l17.954 17.953L68.674 70l.195.195c.8.8 2.047-.448 1.248-1.248L52.164 50.994 32.047 30.877l-.195-.195c-.819-.799-2.066.449-1.248 1.248z"/><path d="M37.622 30v8.596l.877-.877h-8.596c-1.131 0-1.131 1.755 0 1.755h8.596c.487 0 .877-.39.877-.878V30c0-1.13-1.754-1.13-1.754 0zM63.06 70.877v-8.596l-.877.877h8.597c1.13 0 1.13-1.754 0-1.754h-8.597a.874.874 0 0 0-.877.877v8.596c0 1.13 1.754 1.13 1.754 0z"/><g><path d="M68.85 30.702L50.897 48.655 30.78 68.772l-.195.195c-.8.8.448 2.047 1.247 1.247l17.954-17.953 20.117-20.117.194-.195c.78-.818-.448-2.066-1.247-1.247z"/><path d="M70.78 37.72h-8.597l.877.876V30c0-1.13-1.754-1.13-1.754 0v8.596c0 .488.39.878.877.878h8.597c1.13 0 1.13-1.755 0-1.755zM29.903 63.158h8.596l-.877-.877v8.596c0 1.13 1.754 1.13 1.754 0v-8.596a.874.874 0 0 0-.877-.877h-8.596c-1.131 0-1.131 1.754 0 1.754z"/></g></g></g></g></svg>