<svg width="102" height="102" viewBox="0 0 102 102" xmlns="http://www.w3.org/2000/svg"><title>Group 50</title><g transform="translate(1 1)" stroke="#FFF" fill="none" fill-rule="evenodd"><circle stroke-width="2" cx="50" cy="50" r="50"/><g fill="#FFF" fill-rule="nonzero" stroke-width=".5"><path d="M75.266 58.789H64.523V42.592l4.192 4.192a.976.976 0 0 0 1.382-1.381L50.566 25.87a.978.978 0 0 0-1.382 0L29.653 45.403a.978.978 0 0 0 .69 1.667c.25 0 .501-.095.691-.286l4.192-4.192V58.79H24.484a.976.976 0 1 0 0 1.953h10.742v2.93c0 .54.437.976.977.976h.976v.977c0 .54.437.976.977.976h.977v.977c0 .54.437.976.976.976h.977v.977c0 .54.437.976.976.976h.977v.977c0 .54.437.977.976.977h.977v.976c0 .54.437.977.976.977h17.579c.54 0 .976-.437.976-.977V60.742h10.743a.976.976 0 1 0 0-1.953zm-38.087-18.15l12.695-12.695L62.57 40.64v18.15H37.18v-18.15zM62.57 72.461H46.945v-.977a.976.976 0 0 0-.977-.977h-.976v-.976a.976.976 0 0 0-.977-.977h-.976v-.976a.976.976 0 0 0-.977-.977h-.976v-.976a.976.976 0 0 0-.977-.977h-.977v-.976a.976.976 0 0 0-.976-.977h-.977v-1.953H62.57V72.46zM37.104 71.11a.967.967 0 0 0-.213-.317l-1.953-1.953a.978.978 0 0 0-1.382 0 .978.978 0 0 0 0 1.382l.288.286h-3.5a.976.976 0 1 0 0 1.953h3.5l-.285.285a.978.978 0 0 0 .69 1.668c.25 0 .501-.095.692-.286l1.953-1.953a.978.978 0 0 0 .21-1.064z"/></g></g></svg>