<svg width="102" height="102" viewBox="0 0 102 102" xmlns="http://www.w3.org/2000/svg"><title>Group 53</title><g transform="translate(1 1)" stroke="#FFF" fill="none" fill-rule="evenodd"><circle stroke-width="2" cx="50" cy="50" r="50"/><g fill="#FFF" fill-rule="nonzero"><path d="M30.995 67.686h37.482a.77.77 0 0 1 .771.771V73.9a.77.77 0 0 1-.771.771H30.995a.77.77 0 0 1-.771-.77v-5.444a.77.77 0 0 1 .77-.77zm36.71 1.542h-35.94v3.901h35.94v-3.9zM32.367 44.66h34.66a.77.77 0 0 1 .772.77v3.123a.77.77 0 0 1-.771.771h-34.66a.77.77 0 0 1-.772-.77V45.43a.77.77 0 0 1 .771-.771zm33.89 1.542H33.138v1.58h33.119v-1.58zM49.78 27.033c.124.01.242.049.35.116v-.003L55.88 30.8a.77.77 0 1 1-.478 1.419l-5.697-.036-5.76.039a.769.769 0 0 1-.413-1.42V30.8l5.751-3.654a.773.773 0 0 1 .499-.116l-.003.003zm3.017 3.634l-3.091-1.964-3.092 1.964 3.087-.02h.005l3.086.02h.005z"/><path d="M46.051 30.67h7.309a.77.77 0 0 1 .77.77v3.978a.77.77 0 0 1-.77.771H46.05a.77.77 0 0 1-.77-.77V31.44a.77.77 0 0 1 .77-.77zm6.538 1.541h-5.767v2.436h5.767v-2.436zM49.439 25.329h.534a.77.77 0 0 1 .771.77v1.707a.77.77 0 0 1-.77.771h-.535a.77.77 0 0 1-.771-.77V26.1a.77.77 0 0 1 .77-.771z"/><path d="M32.822 46.05a.768.768 0 1 1-.91-1.239L45.597 34.8a.768.768 0 1 1 .91 1.239L32.822 46.05zM67.5 44.811a.768.768 0 1 1-.91 1.239L52.905 36.037a.768.768 0 1 1 .91-1.238L67.5 44.81zM35.374 55.926a.77.77 0 1 1 0-1.542h4.243a.77.77 0 1 1 0 1.542h-4.243z"/><path d="M36.726 48.553a.77.77 0 1 1 1.542 0v19.904a.77.77 0 1 1-1.542 0V48.553zM43.507 55.926a.77.77 0 1 1 0-1.542h4.243a.77.77 0 1 1 0 1.542h-4.243z"/><path d="M44.86 48.553a.77.77 0 1 1 1.541 0v19.904a.77.77 0 1 1-1.542 0V48.553zM51.643 55.926a.77.77 0 1 1 0-1.542h4.243a.77.77 0 1 1 0 1.542h-4.243z"/><path d="M52.993 48.553a.77.77 0 1 1 1.542 0v19.904a.77.77 0 1 1-1.542 0V48.553zM59.778 55.926a.77.77 0 1 1 0-1.542h4.243a.77.77 0 1 1 0 1.542h-4.243z"/><path d="M61.126 48.553a.77.77 0 1 1 1.542 0v19.904a.77.77 0 1 1-1.542 0V48.553zM35.263 68.457a.77.77 0 1 1 1.542 0V73.9a.77.77 0 1 1-1.542 0v-5.443zM42.114 68.457a.77.77 0 1 1 1.542 0V73.9a.77.77 0 1 1-1.542 0v-5.443zM48.966 68.457a.77.77 0 1 1 1.542 0V73.9a.77.77 0 1 1-1.542 0v-5.443zM55.817 68.457a.77.77 0 1 1 1.542 0V73.9a.77.77 0 1 1-1.542 0v-5.443z"/><path d="M62.668 68.457a.77.77 0 1 1 1.542 0V73.9a.77.77 0 1 1-1.542 0v-5.443z"/></g></g></svg>