<svg width="102" height="102" viewBox="0 0 102 102" xmlns="http://www.w3.org/2000/svg"><title>Group 45</title><g transform="translate(1 1)" fill="none" fill-rule="evenodd"><circle stroke="#FFF" stroke-width="2" cx="50" cy="50" r="50"/><g fill="#FFF" fill-rule="nonzero"><path d="M67.892 73H60.45c-.633 0-1.266-.48-1.266-1.28V30.28L32.108 27.4c-.633 0-1.108-.64-1.108-1.28S31.633 25 32.267 25h35.625c.633 0 1.108.48 1.108 1.28v45.6c0 .64-.475 1.12-1.108 1.12zm-6.333-2.4h5.067V27.4H54.75l5.7.64c.634 0 1.109.64 1.109 1.12V70.6z"/><path d="M60.876 76c-.16 0-.16 0 0 0l-28.752-3.028c-.642 0-1.124-.638-1.124-1.116V26.275c0-.319.16-.637.321-.956.321-.16.643-.319.964-.319l28.59 3.028c.643 0 1.125.638 1.125 1.116v45.581c0 .319-.16.637-.321.956-.321.16-.643.319-.803.319zm-27.467-5.26l26.182 2.71V30.26l-26.182-2.71v43.19z"/><path d="M56 50.5c0 2-3 2-3 0s3-2 3 0"/></g></g></svg>