<svg width="463" height="60" viewBox="0 0 463 60" xmlns="http://www.w3.org/2000/svg"><title>Добавьте света</title><path d="M49.77 38.01v20.93l-10.15.7-1.75-10.29h-25.9l-1.61 9.59-10.36.7V38.01h3.57c2.147-.84 3.792-2.053 4.935-3.64 1.143-1.587 2.077-3.92 2.8-7 .723-3.08 1.435-7.63 2.135-13.65l1.12-9.66h29.68l-.77 30.59.14 3.36h6.16zm-19.18 0l.07-1.96-.49-21.63h-4.55l-.21 1.89c-.747 6.067-1.598 10.757-2.555 14.07-.957 3.313-2.205 5.857-3.745 7.63h11.48zm49.98-18.34c2.66 2.8 3.99 6.93 3.99 12.39 0 5.973-1.435 10.488-4.305 13.545-2.87 3.057-7.105 4.585-12.705 4.585-5.227 0-9.17-1.388-11.83-4.165s-3.99-6.872-3.99-12.285c0-6.02 1.435-10.57 4.305-13.65 2.87-3.08 7.105-4.62 12.705-4.62 5.227 0 9.17 1.4 11.83 4.2zm-14.91 5.495c-.467.35-.782.992-.945 1.925-.163.933-.245 2.357-.245 4.27 0 2.847.105 4.958.315 6.335.21 1.377.595 2.333 1.155 2.87.56.537 1.423.805 2.59.805.933 0 1.622-.175 2.065-.525.443-.35.747-1.003.91-1.96.163-.957.245-2.392.245-4.305 0-2.8-.105-4.888-.315-6.265-.21-1.377-.595-2.333-1.155-2.87-.56-.537-1.4-.805-2.52-.805-.933 0-1.633.175-2.1.525zm51.66-4.2c2.193 2.59 3.29 6.428 3.29 11.515 0 11.807-5.763 17.71-17.29 17.71-3.827 0-6.872-.723-9.135-2.17s-3.92-3.757-4.97-6.93c-1.05-3.173-1.575-7.443-1.575-12.81 0-4.947.443-8.96 1.33-12.04.887-3.08 2.357-5.553 4.41-7.42s4.877-3.337 8.47-4.41l6.51-1.96c2.52-.747 4.83-1.563 6.93-2.45l1.12.84.49 10.71c-1.167.28-3.407.747-6.72 1.4l-6.16 1.26c-1.353.28-2.287.747-2.8 1.4-.513.653-.77 1.657-.77 3.01v3.29l.63.14c2.053-2.52 4.223-4.177 6.51-4.97 4.293 0 7.537 1.295 9.73 3.885zm-10.22 19.18c.467-.817.7-2.392.7-4.725 0-2.94-.327-4.982-.98-6.125-.653-1.143-1.843-1.715-3.57-1.715-1.027 0-1.96.257-2.8.77 0 3.687.105 6.44.315 8.26.21 1.82.595 3.068 1.155 3.745s1.4 1.015 2.52 1.015c1.307 0 2.193-.408 2.66-1.225zm42.28-22.05c2.333 1.75 3.5 4.258 3.5 7.525 0 .933-.093 3.407-.28 7.42-.187 3.547-.28 5.53-.28 5.95 0 .513.082.887.245 1.12.163.233.408.35.735.35s.723-.07 1.19-.21l.84.7-1.19 7c-1.727 1.213-3.897 1.913-6.51 2.1a6.338 6.338 0 0 1-3.605-1.4c-1.05-.84-1.855-2.03-2.415-3.57h-.49c-2.053 2.38-4.387 4.06-7 5.04-3.547-.047-6.382-1.038-8.505-2.975-2.123-1.937-3.185-4.585-3.185-7.945 0-5.18 2.683-8.143 8.05-8.89l9.94-1.33v-.84c0-1.213-.245-2.077-.735-2.59-.49-.513-1.342-.77-2.555-.77-2.613 0-5.997 1.12-10.15 3.36l-.84-.56-1.47-8.61c2.147-1.12 4.515-1.983 7.105-2.59a33.53 33.53 0 0 1 7.665-.91c4.293 0 7.607.875 9.94 2.625zM136.43 35.49c-.653.093-1.132.338-1.435.735-.303.397-.455.992-.455 1.785 0 1.867.863 2.8 2.59 2.8 1.12 0 2.217-.373 3.29-1.12v-4.76l-3.99.56zm53.34-.35c.887 1.167 1.33 2.683 1.33 4.55 0 3.547-1.458 6.113-4.375 7.7-2.917 1.587-7.245 2.38-12.985 2.38-3.36 0-8.167-.14-14.42-.42l.63-13.3-.49-19.74h18.55c3.92 0 6.953.735 9.1 2.205 2.147 1.47 3.22 3.605 3.22 6.405 0 1.633-.432 3.103-1.295 4.41s-2.088 2.333-3.675 3.08c2.053.653 3.523 1.563 4.41 2.73zm-17.64-10.99l-.21 5.32 4.06.21c.7-.28 1.202-.642 1.505-1.085.303-.443.455-1.062.455-1.855 0-1.027-.362-1.715-1.085-2.065-.723-.35-2.228-.525-4.515-.525h-.21zm5.775 17.15c.537-.467.805-1.143.805-2.03 0-.513-.117-.945-.35-1.295-.233-.35-.653-.688-1.26-1.015l-5.32.07.21 4.69c1.353.187 2.613.28 3.78.28.887 0 1.598-.233 2.135-.7zm46.725-11.935c2.1 1.563 3.15 3.862 3.15 6.895 0 4.013-1.552 7.198-4.655 9.555-3.103 2.357-7.315 3.535-12.635 3.535h-15.12l.63-13.3-.49-19.74h13.58l-.35 10.71h6.72c4.013 0 7.07.782 9.17 2.345zM214.27 39.83c.42-.653.63-1.307.63-1.96 0-.933-.303-1.703-.91-2.31s-1.4-.887-2.38-.84l-3.15.07.28 6.3 3.92.21a4.049 4.049 0 0 0 1.61-1.47zm43.61-22.75l-.7 8.82-7.07-.35h-.7l-.28 9.1.56 14.7h-13.65l.63-13.3-.28-10.5h-.77l-7.07.35-.7-.84.63-8.75h28.7l.7.77zm30.73 18.55l-17.36.14c.42 1.633 1.213 2.835 2.38 3.605 1.167.77 2.777 1.155 4.83 1.155 2.287 0 5.623-.583 10.01-1.75l.98.7-2.1 9.24c-3.687.98-7.117 1.47-10.29 1.47-5.787 0-10.302-1.54-13.545-4.62-3.243-3.08-4.865-7.327-4.865-12.74 0-5.367 1.54-9.59 4.62-12.67s7.303-4.62 12.67-4.62c4.62 0 8.202 1.213 10.745 3.64 2.543 2.427 3.815 5.81 3.815 10.15 0 1.4-.14 2.917-.42 4.55l-1.47 1.75zm-9.66-7.7c0-2.473-1.05-3.71-3.15-3.71-2.567 0-4.13 1.657-4.69 4.97l7.7-.28.14-.98zm49.07-10.78l-2.17 10.36-.98.49c-1.26-.513-2.287-.887-3.08-1.12-.793-.233-1.54-.35-2.24-.35-1.447 0-2.52.432-3.22 1.295-.7.863-1.05 2.228-1.05 4.095 0 2.66.408 4.597 1.225 5.81.817 1.213 2.112 1.82 3.885 1.82 1.447 0 3.43-.35 5.95-1.05l.91.77-1.4 10.01c-2.427.607-5.343.91-8.75.91-4.713 0-8.365-1.458-10.955-4.375s-3.885-7.058-3.885-12.425c0-5.693 1.505-10.103 4.515-13.23 3.01-3.127 7.245-4.69 12.705-4.69 3.173 0 6.02.56 8.54 1.68zm34.79 17.99c.887 1.167 1.33 2.683 1.33 4.55 0 3.547-1.458 6.113-4.375 7.7-2.917 1.587-7.245 2.38-12.985 2.38-3.36 0-8.167-.14-14.42-.42l.63-13.3-.49-19.74h18.55c3.92 0 6.953.735 9.1 2.205 2.147 1.47 3.22 3.605 3.22 6.405 0 1.633-.432 3.103-1.295 4.41s-2.088 2.333-3.675 3.08c2.053.653 3.523 1.563 4.41 2.73zm-17.64-10.99l-.21 5.32 4.06.21c.7-.28 1.202-.642 1.505-1.085.303-.443.455-1.062.455-1.855 0-1.027-.362-1.715-1.085-2.065-.723-.35-2.228-.525-4.515-.525h-.21zm5.775 17.15c.537-.467.805-1.143.805-2.03 0-.513-.117-.945-.35-1.295-.233-.35-.653-.688-1.26-1.015l-5.32.07.21 4.69c1.353.187 2.613.28 3.78.28.887 0 1.598-.233 2.135-.7zm45.185-5.67l-17.36.14c.42 1.633 1.213 2.835 2.38 3.605 1.167.77 2.777 1.155 4.83 1.155 2.287 0 5.623-.583 10.01-1.75l.98.7-2.1 9.24c-3.687.98-7.117 1.47-10.29 1.47-5.787 0-10.302-1.54-13.545-4.62-3.243-3.08-4.865-7.327-4.865-12.74 0-5.367 1.54-9.59 4.62-12.67s7.303-4.62 12.67-4.62c4.62 0 8.202 1.213 10.745 3.64 2.543 2.427 3.815 5.81 3.815 10.15 0 1.4-.14 2.917-.42 4.55l-1.47 1.75zm-9.66-7.7c0-2.473-1.05-3.71-3.15-3.71-2.567 0-4.13 1.657-4.69 4.97l7.7-.28.14-.98zm42.91-10.85l-.7 8.82-7.07-.35h-.7l-.28 9.1.56 14.7h-13.65l.63-13.3-.28-10.5h-.77l-7.07.35-.7-.84.63-8.75h28.7l.7.77zm27.65 1.015c2.333 1.75 3.5 4.258 3.5 7.525 0 .933-.093 3.407-.28 7.42-.187 3.547-.28 5.53-.28 5.95 0 .513.082.887.245 1.12.163.233.408.35.735.35s.723-.07 1.19-.21l.84.7-1.19 7c-1.727 1.213-3.897 1.913-6.51 2.1a6.338 6.338 0 0 1-3.605-1.4c-1.05-.84-1.855-2.03-2.415-3.57h-.49c-2.053 2.38-4.387 4.06-7 5.04-3.547-.047-6.382-1.038-8.505-2.975-2.123-1.937-3.185-4.585-3.185-7.945 0-5.18 2.683-8.143 8.05-8.89l9.94-1.33v-.84c0-1.213-.245-2.077-.735-2.59-.49-.513-1.342-.77-2.555-.77-2.613 0-5.997 1.12-10.15 3.36l-.84-.56-1.47-8.61c2.147-1.12 4.515-1.983 7.105-2.59a33.53 33.53 0 0 1 7.665-.91c4.293 0 7.607.875 9.94 2.625zM444.08 35.49c-.653.093-1.132.338-1.435.735-.303.397-.455.992-.455 1.785 0 1.867.863 2.8 2.59 2.8 1.12 0 2.217-.373 3.29-1.12v-4.76l-3.99.56z" fill="#000" fill-rule="evenodd"/></svg>