<svg width="150" height="150" viewBox="0 0 150 150" xmlns="http://www.w3.org/2000/svg" xmlns:xlink="http://www.w3.org/1999/xlink"><title>Group 60</title><defs><rect id="a" width="120" height="120" rx="60"/></defs><g transform="translate(15 15)" fill="none" fill-rule="evenodd"><mask id="b" fill="#fff"><use xlink:href="#a"/></mask><use stroke="#F9DD1C" stroke-width="30" fill="#FFF" xlink:href="#a"/><path d="M34.627 55.932l-.689-1.689a15.52 15.52 0 0 0-2.256 1.183l.95 1.552a13.659 13.659 0 0 1 1.995-1.046zm-3.803 2.408l-1.18-1.379c-.633.561-1.23 1.18-1.773 1.84l1.375 1.175a14.676 14.676 0 0 1 1.578-1.636zm-2.89 3.502l-1.537-.946c-.435.732-.82 1.505-1.142 2.297l1.66.7c.288-.708.63-1.397 1.02-2.05zm-1.721 4.232l-1.744-.436c-.2.829-.342 1.681-.42 2.535l1.79.169a15.67 15.67 0 0 1 .374-2.268zm-.133 6.85a15.85 15.85 0 0 1-.286-2.281L24 70.741c.045.856.153 1.714.32 2.55l1.76-.366zm1.553 4.3a15.333 15.333 0 0 1-.936-2.09l-1.686.63c.29.805.643 1.593 1.049 2.342l1.573-.882zm2.745 3.622a14.76 14.76 0 0 1-1.509-1.702l-1.423 1.116c.516.68 1.087 1.325 1.697 1.913l1.235-1.327zm20.283-11.048c0 5.954-4.637 10.796-10.335 10.796-5.698 0-10.334-4.842-10.334-10.796 0-5.953 4.636-10.795 10.334-10.795 5.698 0 10.335 4.842 10.335 10.795zm1.828 0c0-6.96-5.456-12.624-12.163-12.624-6.706 0-12.162 5.663-12.162 12.624s5.456 12.624 12.162 12.624c6.707 0 12.163-5.663 12.163-12.624zm29.022-5.813l-1.775.436c.21.854.31 1.728.3 2.597l1.828.022a12.192 12.192 0 0 0-.353-3.055zm-.066 6.054l-1.764-.48c-1.173 4.308-5.105 7.569-9.906 7.569-6.694 0-10.29.647-13.922-2.85l-1.267 1.318c4.217 4.057 8.487 3.36 15.189 3.36 5.65 0 10.287-3.832 11.67-8.917zm6.019-7.517l-3.87-15.744H49.131l-2.24 9.115 1.775.436 1.898-7.723h31.598l3.527 14.352c2.537 10.324-5.271 20.3-15.915 20.3-6.843 0-11.218.602-16.294-3.006l-1.06 1.49a18.07 18.07 0 0 0 10.531 3.345h6.823c11.815 0 20.515-11.073 17.69-22.565zM74.577 35.558c0-3.65-4.097-5.806-7.1-3.776l1.023 1.515c1.799-1.215 4.25.078 4.25 2.261 0 2.124-2.33 3.423-4.133 2.337l-.944 1.564c3.016 1.82 6.904-.356 6.904-3.9zm-9.224 0a2.73 2.73 0 0 1-2.726 2.726 2.73 2.73 0 0 1-2.726-2.726 2.73 2.73 0 0 1 2.726-2.726 2.73 2.73 0 0 1 2.726 2.726zm1.828 0a4.56 4.56 0 0 0-4.554-4.554 4.56 4.56 0 0 0-4.554 4.554 4.56 4.56 0 0 0 4.554 4.554 4.559 4.559 0 0 0 4.554-4.554zM87.51 47.692h-1.828v-3.987H47.083v3.987h-1.828v-5.815h42.254v5.815z" fill="#000" mask="url(#b)"/></g></svg>