<svg width="150" height="150" viewBox="0 0 150 150" xmlns="http://www.w3.org/2000/svg" xmlns:xlink="http://www.w3.org/1999/xlink"><title>Group 58</title><defs><rect id="a" width="120" height="120" rx="60"/></defs><g transform="translate(15 15)" fill="none" fill-rule="evenodd"><mask id="b" fill="#fff"><use xlink:href="#a"/></mask><use stroke="#F9DD1C" stroke-width="30" fill="#FFF" xlink:href="#a"/><path d="M60.055 72.241c-3.098-2.495-6.297-5.453-7.262-6.86l1.848-.91v.87h1.49V60.55c2.568 1.943 5.592 1.666 7.902-.424v5.215h1.49v-1.262l2.055 1.048c-.662 1.656-4.504 4.935-7.523 7.114zm.036-15.803c-.931 0-.931-1.412 0-1.412.932 0 .933 1.412 0 1.412zm-8.52-7.306c0-5.507 8.226-6.5 11.502-8.959 5.475 4.422 4.813 6.989 4.813 9.158 0 1.855-.314 3.497-.914 4.869-2.305.74-4.315.742-4.842.727a2.197 2.197 0 0 0-2.039-1.392c-1.21 0-2.195.986-2.195 2.197 0 1.212.985 2.197 2.195 2.197.97 0 1.784-.635 2.075-1.508 1.029.03 2.351-.08 3.664-.356-.41.497.082-.043-2.444 2.616-1.05 1.105-2.283 1.69-3.561 1.69-1.279 0-2.51-.585-3.56-1.69-2.075-2.185-4.695-4.232-4.695-9.549zm20.427-4.972c1.514-.55 2.987.861 2.987 2.737 0 2.016-1.63 3.308-3.07 2.72-.497-3.633-.176-3.562.083-5.457zm-1.934 20.56l-4.54-2.315v-3.81c1.112-1.17 1.762-1.75 2.5-3.157a13.7 13.7 0 0 0 3.218-1.68c.43 1.517 1.028 3.104 1.864 4.617-.92.747-3.285 2.39-6.613 2.7l.138 1.484c2.992-.278 6.036-1.571 8.363-3.911-.471-.787-1.63-2.582-2.478-5.927a12.49 12.49 0 0 0 1.6-1.807c4.096-1.937 2.44-8.988-1.962-8.328.456-8.055-3.782-12.31-7.808-12.645-8.541-4.411-16.605 2.434-16.664 11.688l1.49.01c.003-.553.041-.852.042-.853.487-7.587 7.146-13.395 14.575-9.454l.143.076.163.01c3.611.21 6.55 4.369 6.55 9.27l.006.094c.003.02.233 1.949-.47 5.046l-.018.147c-.004.18-.05 2.858.682 6.2-.653.514-1.336.935-2.022 1.275a14.18 14.18 0 0 0 .536-3.33c.019-3.103.766-6.09-5.182-10.971 1.68-1.96 1.346-4.108 1.346-5.333h-1.49c0 3.551-.179 4.742-4.665 6.611-4.776 1.986-9.288 3.861-9.288 8.705 0 5.844 3.021 8.383 4.56 10.003v3.673l-4.108 2.025c-8.437 4.16-10.07 12.757-11.693 18.449 13.18 4.7 26.713 4.717 38.455 1.328l-.414-1.433a57.5 57.5 0 0 1-3.263.83v-2.614h-1.49v2.933c-7.724 1.541-16.03 1.607-24.049.01v-2.943h-1.49v2.619a57.37 57.37 0 0 1-5.927-1.668c1.59-5.59 3.097-12.51 10.823-16.317 1.54 2.453 6.26 6.286 8.52 8.079 2.477-1.746 7.59-5.566 8.881-8.313 8.325 4.243 9.571 11.238 11.09 16.693l1.436-.4c-1.215-4.367-2.904-13.206-11.347-17.366zm-5.286 14.345h4.68v-1.492h-4.68v1.492zM60.6 80.967c-.754.754-1.897-.387-1.141-1.142.753-.754 1.895.387 1.141 1.142zm-.57-3.315c-1.067 0-1.068-1.615 0-1.615 1.065 0 1.067 1.615 0 1.615zM46.847 42.12h-1.49c0-9.61 5.81-16.077 14.468-16.12h.085c8.658.043 14.47 6.51 14.47 16.12H72.89c0-19.61-26.042-19.595-26.042 0zm.977 1.938c-.112 1.166-.193 3.103.049 5.674-1.514.208-2.624-1.243-2.624-2.835 0-1.66 1.168-3.02 2.575-2.84zm.02 7.173c-.597 3.157-1.652 5.39-3.009 7.657 2.33 2.34 5.375 3.633 8.363 3.912l.138-1.485c-3.326-.31-5.691-1.951-6.61-2.698a23.293 23.293 0 0 0 2.736-7.992h.005c-.53-4.33-.097-7.05-.021-7.473l.023-.036-.015-.009a.246.246 0 0 0 .003-.019l-.06-.012c-2.556-1.574-5.639.548-5.639 3.82 0 2.415 1.772 4.504 4.086 4.335z" fill="#000" mask="url(#b)"/></g></svg>