<svg width="150" height="150" viewBox="0 0 150 150" xmlns="http://www.w3.org/2000/svg" xmlns:xlink="http://www.w3.org/1999/xlink"><title>icon</title><defs><rect id="a" width="120" height="120" rx="60"/></defs><g transform="translate(15 15)" fill="none" fill-rule="evenodd"><mask id="b" fill="#fff"><use xlink:href="#a"/></mask><use stroke="#F9DD1C" stroke-width="30" fill="#FFF" xlink:href="#a"/><path d="M53.964 31.498h1.997V30h-1.997v1.498zm3.995 0h1.997V30h-1.997v1.498zm-11.984 0h1.997V30h-1.997v1.498zm3.995 0h1.997V30H49.97v1.498zm11.983 0h1.997V30h-1.997v1.498zm7.989 0h1.997V30h-1.997v1.498zm-3.994 0h1.997V30h-1.997v1.498zm5.075 54.425h2.247v-1.498h-2.247v1.498zm-29.042 0h27.295v-1.498H41.98v1.498zm1.139-36.377H60.1v-3.59H43.12v3.59zm-1.498 1.498h19.975v-6.586H41.622v6.586zm25.277 10.437h7.23v-1.497H66.9v1.497zm0-4.942h7.23v-1.498H66.9v1.498zm3.995-4.943h1.997v-1.498h-1.997v1.498zm-3.995 0h1.997v-1.498H66.9v1.498zm0-4.943h7.23v-1.497H66.9v1.497zm-10.897 9.824l1.925-.472-4.72 3.917-4.736-5.262-6.767 4.897.877 1.212 5.678-4.106 4.797 5.33 5.717-4.744-.567 1.606 1.413.498 2.05-5.808-6.024 1.477.357 1.455zM38.53 66.827h-1.497V38.094h42.069v28.731h-1.498V39.593H38.53v27.233zm47.972 9.699a4.249 4.249 0 0 1-4.244 4.244H33.742a4.25 4.25 0 0 1-4.244-4.244v-1.221h15.568v3.303h25.422v-3.303h16.014v1.22zm-39.938.584H68.99v-1.805H46.564v1.805zM28 73.807v2.719a5.749 5.749 0 0 0 5.742 5.742h48.516A5.749 5.749 0 0 0 88 76.526v-2.72H28zm6.781-4.695h46.706V35.403H34.78v33.71zm-1.498 1.498h49.701V33.905h-49.7V70.61z" fill="#000" mask="url(#b)"/></g></svg>