<svg width="150" height="150" viewBox="0 0 150 150" xmlns="http://www.w3.org/2000/svg" xmlns:xlink="http://www.w3.org/1999/xlink"><title>Group 59</title><defs><rect id="a" width="120" height="120" rx="60"/></defs><g transform="translate(15 15)" fill="none" fill-rule="evenodd"><mask id="b" fill="#fff"><use xlink:href="#a"/></mask><use stroke="#F9DD1C" stroke-width="30" fill="#FFF" xlink:href="#a"/><path d="M57.787 48.466a6.815 6.815 0 0 0-6.807 6.808 6.815 6.815 0 0 0 6.807 6.807 6.815 6.815 0 0 0 6.808-6.807 6.815 6.815 0 0 0-6.808-6.808zm0-1.685c4.683 0 8.493 3.81 8.493 8.493s-3.81 8.493-8.493 8.493-8.493-3.81-8.493-8.493 3.81-8.493 8.493-8.493zm-5.647 9.336h2.248V54.43H52.14v1.686zm8.99 0h2.248V54.43H61.13v1.686zm-4.495 0h2.248V54.43h-2.248v1.686zm21.721 9.107h1.765v-1.686h-1.765v1.686zM32.99 57.259h7.042v-1.685H32.99v1.685zM24 60.935h11.443V59.25H24v1.685zm2.547 3.864h2.248v-1.685h-2.248v1.685zm4.308 0h9.177v-1.685h-9.177v1.685zm55.178 12.85a2.668 2.668 0 0 0-2.665-2.664 2.668 2.668 0 0 0-2.665 2.664 2.668 2.668 0 0 0 2.665 2.665 2.668 2.668 0 0 0 2.665-2.665zm1.686 0c0 2.4-1.952 4.351-4.35 4.351-2.4 0-4.351-1.951-4.351-4.35 0-2.4 1.951-4.351 4.35-4.351a4.355 4.355 0 0 1 4.35 4.35zm-32.65 0a2.668 2.668 0 0 0-2.664-2.664 2.668 2.668 0 0 0-2.665 2.664 2.668 2.668 0 0 0 2.665 2.665 2.668 2.668 0 0 0 2.665-2.665zm1.687 0c0 2.4-1.952 4.351-4.351 4.351-2.4 0-4.35-1.951-4.35-4.35 0-2.4 1.95-4.351 4.35-4.351 2.4 0 4.35 1.951 4.35 4.35zm1.045-.743h19.82V75.22H57.8v1.686zm-18.144-5.93v5.93h7.44V75.22h-5.754v-2.56h52.834v2.56h-5.6v1.686h7.286v-5.93H39.657zm51.836-5.696v-1.398h-2.134c.327.8 1.102 1.398 2.134 1.398zM79.857 51.751H74.4v-1.685h6.154L93.178 62.69v6.6h-1.685v-2.324c-2.315 0-3.983-1.834-3.983-3.927v-.843H90.3l-1.442-1.441H76.516v8.777H74.83V54.687h1.686v4.382h10.658l-7.317-7.318zm-35.61 17.78H42.56V39h30.845v30.532h-1.685V40.686H44.246v28.846z" fill="#000" mask="url(#b)"/></g></svg>